<svg width="263" height="385" viewBox="0 0 263 385" fill="none" xmlns="http://www.w3.org/2000/svg">
<path d="M72.8598 121.836H10.2975C4.61036 121.836 0 126.446 0 132.133V194.696C0 200.383 4.61036 204.993 10.2975 204.993H72.8598C78.547 204.993 83.1574 200.383 83.1574 194.696V132.133C83.1574 126.446 78.547 121.836 72.8598 121.836Z" fill="white"/>
<path d="M69.2919 163.417H41.5801V135.705C48.9297 135.705 55.9782 138.625 61.1752 143.822C66.3721 149.019 69.2919 156.067 69.2919 163.417Z" fill="#BFD2EB"/>
<path d="M41.5744 173.112C46.9312 173.112 51.2737 168.769 51.2737 163.412C51.2737 158.055 46.9312 153.713 41.5744 153.713C36.2176 153.713 31.875 158.055 31.875 163.412C31.875 168.769 36.2176 173.112 41.5744 173.112Z" fill="#FFB567"/>
<path d="M250.946 241H47.7282C41.2509 241 36 246.251 36 252.728V372.596C36 379.074 41.2509 384.325 47.7282 384.325H250.946C257.423 384.325 262.674 379.074 262.674 372.596V252.728C262.674 246.251 257.423 241 250.946 241Z" fill="white"/>
<path d="M109.139 360.245C100.925 360.245 97.9453 352.417 95.3003 345.464C92.3691 337.771 90.1897 333.116 84.8722 333.295C80.2099 333.454 76.9718 341.102 75.4579 345.651C74.0865 349.906 73.0613 354.265 72.3922 358.686C72.3617 358.91 72.2872 359.126 72.1731 359.322C72.059 359.518 71.9075 359.689 71.7272 359.826C71.547 359.963 71.3414 360.063 71.1224 360.121C70.9034 360.179 70.6751 360.192 70.4507 360.162C70.2263 360.131 70.0101 360.057 69.8145 359.943C69.6189 359.829 69.4477 359.677 69.3106 359.497C69.1736 359.316 69.0733 359.111 69.0157 358.892C68.9581 358.673 68.9442 358.445 68.9748 358.22C69.6651 353.601 70.7342 349.046 72.1715 344.602C75.3682 334.988 79.6029 330.026 84.7549 329.85C92.9381 329.567 95.9038 337.364 98.5211 344.24C101.645 352.448 104.001 357.386 110.246 356.737C116.388 356.1 119.946 345.261 123.388 334.778C127.243 323.053 131.23 310.897 139.941 310.897C148.534 310.897 152.483 323.312 156.3 335.309C159.655 345.858 163.121 356.755 168.877 356.755C169.014 356.755 169.152 356.755 169.294 356.755C179.487 355.834 182.988 337.561 186.371 319.887C188.15 310.611 189.985 301.021 192.847 293.879C196.271 285.32 200.864 281.161 206.892 281.161C214.679 281.161 220.421 290.62 224.438 310.076C227.7 325.877 229.118 345.109 229.731 358.458C229.752 358.915 229.591 359.36 229.283 359.698C228.975 360.035 228.546 360.237 228.09 360.258C227.863 360.269 227.637 360.235 227.424 360.158C227.211 360.081 227.015 359.963 226.847 359.81C226.68 359.657 226.544 359.473 226.448 359.268C226.351 359.062 226.297 358.84 226.286 358.613C224.155 312.277 216.907 284.61 206.892 284.61C196.64 284.61 193.143 302.886 189.757 320.536C186.133 339.464 182.384 359.038 169.601 360.193C160.838 360.976 156.862 348.468 153.014 336.374C149.565 325.557 146.013 314.366 139.941 314.366C133.733 314.366 130.144 325.301 126.671 335.874C122.878 347.403 118.974 359.324 110.608 360.189C110.12 360.233 109.629 360.252 109.139 360.245Z" fill="#351D36"/>
<path d="M240.083 262.643H114.673C114.216 262.643 113.778 262.461 113.454 262.138C113.131 261.814 112.949 261.376 112.949 260.919C112.949 260.461 113.131 260.023 113.454 259.699C113.778 259.376 114.216 259.194 114.673 259.194H240.083C240.541 259.194 240.979 259.376 241.303 259.699C241.626 260.023 241.808 260.461 241.808 260.919C241.808 261.376 241.626 261.814 241.303 262.138C240.979 262.461 240.541 262.643 240.083 262.643Z" fill="#351D36"/>
<path d="M97.1479 262.643H61.7047C61.2474 262.643 60.8089 262.461 60.4855 262.138C60.1622 261.814 59.9805 261.376 59.9805 260.919C59.9805 260.461 60.1622 260.023 60.4855 259.699C60.8089 259.376 61.2474 259.194 61.7047 259.194H97.1479C97.6052 259.194 98.0438 259.376 98.3672 259.699C98.6905 260.023 98.8722 260.461 98.8722 260.919C98.8722 261.376 98.6905 261.814 98.3672 262.138C98.0438 262.461 97.6052 262.643 97.1479 262.643Z" fill="#FFB567"/>
<path d="M235.672 167.598V181.929C235.673 183.178 235.428 184.414 234.951 185.567C234.474 186.72 233.774 187.769 232.892 188.652C232.01 189.535 230.963 190.235 229.81 190.714C228.657 191.192 227.421 191.438 226.173 191.439H158.778C157.53 191.439 156.293 191.193 155.14 190.715C153.987 190.238 152.939 189.537 152.056 188.654C151.174 187.772 150.474 186.723 149.996 185.57C149.519 184.417 149.273 183.18 149.273 181.932V143.803H160.443C170.047 143.803 179.444 146.592 187.493 151.831L199.386 159.57C207.435 164.809 216.832 167.599 226.436 167.598H235.672Z" fill="#F1D7E0"/>
<path d="M235.671 108.133V167.598H226.419C216.815 167.599 207.417 164.81 199.368 159.57L187.476 151.831C179.426 146.592 170.029 143.803 160.425 143.803H149.256V108.133C149.256 105.613 150.257 103.195 152.04 101.413C153.822 99.6303 156.24 98.6289 158.76 98.6289H226.156C227.405 98.6275 228.642 98.8723 229.796 99.3494C230.95 99.8264 231.999 100.526 232.883 101.409C233.767 102.292 234.468 103.34 234.946 104.494C235.424 105.647 235.671 106.884 235.671 108.133Z" fill="url(#paint0_linear_602_7)"/>
<path d="M235.672 113.827H149.273C148.92 113.827 148.582 113.687 148.333 113.438C148.084 113.188 147.943 112.85 147.943 112.498C147.943 112.145 148.084 111.807 148.333 111.557C148.582 111.308 148.92 111.168 149.273 111.168H235.672C236.024 111.168 236.363 111.308 236.612 111.557C236.861 111.807 237.001 112.145 237.001 112.498C237.001 112.85 236.861 113.188 236.612 113.438C236.363 113.687 236.024 113.827 235.672 113.827Z" fill="#351D36"/>
<path d="M158.637 107.225C159.75 107.225 160.653 106.322 160.653 105.209C160.653 104.096 159.75 103.193 158.637 103.193C157.524 103.193 156.621 104.096 156.621 105.209C156.621 106.322 157.524 107.225 158.637 107.225Z" fill="#351D36"/>
<path d="M167.422 107.225C168.535 107.225 169.438 106.322 169.438 105.209C169.438 104.096 168.535 103.193 167.422 103.193C166.309 103.193 165.406 104.096 165.406 105.209C165.406 106.322 166.309 107.225 167.422 107.225Z" fill="#351D36"/>
<path d="M176.942 107.225C178.055 107.225 178.957 106.322 178.957 105.209C178.957 104.096 178.055 103.193 176.942 103.193C175.828 103.193 174.926 104.096 174.926 105.209C174.926 106.322 175.828 107.225 176.942 107.225Z" fill="white"/>
<path d="M208.424 12.0154V45.8099C208.424 47.4132 208.108 49.0008 207.494 50.482C206.881 51.9632 205.981 53.309 204.847 54.4425C203.713 55.5761 202.367 56.4752 200.886 57.0884C199.405 57.7017 197.817 58.0172 196.214 58.0168H56.7025C55.0982 58.0188 53.5093 57.7045 52.0265 57.0919C50.5437 56.4794 49.1963 55.5805 48.0611 54.4468C46.926 53.3131 46.0255 51.9668 45.4111 50.4848C44.7967 49.0028 44.4805 47.4142 44.4805 45.8099V12.0154C44.4805 8.82873 45.7464 5.77256 47.9997 3.51923C50.253 1.2659 53.3092 0 56.4959 0H196.42C199.605 0.00322163 202.658 1.27056 204.909 3.52353C207.159 5.77651 208.424 8.83083 208.424 12.0154Z" fill="#F1D7E0"/>
<path d="M208.424 12.0154V29.0145H44.4805V12.0154C44.4805 8.82873 45.7464 5.77256 47.9997 3.51923C50.253 1.2659 53.3092 0 56.4959 0H196.42C199.605 0.00322163 202.658 1.27056 204.909 3.52353C207.159 5.77651 208.424 8.83083 208.424 12.0154Z" fill="url(#paint1_linear_602_7)"/>
<g clip-path="url(#clip0_602_7)">
<path d="M77.8751 179.852C49.8695 179.852 27.0742 157.056 27.0742 129.051C27.0742 101.118 49.8695 78.3223 77.8751 78.3223C105.881 78.3223 128.676 101.118 128.676 129.051C128.604 157.056 105.808 179.852 77.8751 179.852ZM77.8751 80.8551C51.2444 80.8551 29.607 102.492 29.607 129.051C29.607 155.681 51.2444 177.319 77.8751 177.319C104.506 177.319 126.143 155.681 126.143 129.051C126.071 102.492 104.433 80.8551 77.8751 80.8551ZM77.8751 161.036C71.5792 161.036 65.3558 159.155 60.1454 155.681C54.8627 152.135 50.7379 147.142 48.3498 141.281C45.8893 135.491 45.2381 129.051 46.4683 122.827C47.6985 116.604 50.7379 110.959 55.2245 106.473C59.7112 101.986 65.3558 98.9465 71.5792 97.7163C77.8027 96.4861 84.2433 97.1374 90.0325 99.5978C95.8942 101.986 100.887 106.111 104.361 111.393C107.907 116.676 109.716 122.827 109.716 129.123C109.716 137.59 106.315 145.695 100.381 151.701C94.4469 157.635 86.3419 161.036 77.8751 161.036ZM77.8751 99.6702C72.0858 99.6702 66.3689 101.407 61.5204 104.591C56.6719 107.848 52.9088 112.407 50.6655 117.762C48.4222 123.117 47.8432 129.051 49.0011 134.768C50.1589 140.485 52.9088 145.695 57.0337 149.82C61.1586 153.945 66.3689 156.767 72.0858 157.852C77.8027 159.01 83.7367 158.431 89.0918 156.188C94.4469 153.945 99.0783 150.182 102.262 145.333C105.519 140.485 107.183 134.84 107.183 128.978C107.183 121.163 104.072 113.709 98.5717 108.209C93.1443 102.782 85.6182 99.6702 77.8751 99.6702Z" fill="url(#paint2_linear_602_7)"/>
</g>
<defs>
<linearGradient id="paint0_linear_602_7" x1="192.012" y1="79.7185" x2="192.81" y2="159.692" gradientUnits="userSpaceOnUse">
<stop offset="0.36" stop-color="white"/>
<stop offset="0.49" stop-color="#E7EEF7"/>
<stop offset="0.68" stop-color="#CADAEE"/>
<stop offset="0.79" stop-color="#BFD2EB"/>
</linearGradient>
<linearGradient id="paint1_linear_602_7" x1="44.4926" y1="14.5042" x2="208.424" y2="14.5042" gradientUnits="userSpaceOnUse">
<stop offset="0.46" stop-color="white"/>
<stop offset="0.58" stop-color="#FFE0BF"/>
<stop offset="0.67" stop-color="#FFC98F"/>
<stop offset="0.75" stop-color="#FFBA72"/>
<stop offset="0.79" stop-color="#FFB567"/>
</linearGradient>
<linearGradient id="paint2_linear_602_7" x1="18.8791" y1="71.2584" x2="104.648" y2="155.362" gradientUnits="userSpaceOnUse">
<stop stop-color="white" stop-opacity="0"/>
<stop offset="1" stop-color="white"/>
</linearGradient>
<clipPath id="clip0_602_7">
<rect width="101.529" height="101.529" fill="white" transform="translate(27.0742 78.3223)"/>
</clipPath>
</defs>
</svg>
