<svg width="271" height="380" viewBox="0 0 271 380" fill="none" xmlns="http://www.w3.org/2000/svg">
<path d="M209.608 0H148.392C143.205 0 139 4.20472 139 9.39152V70.6085C139 75.7953 143.205 80 148.392 80H209.608C214.795 80 219 75.7953 219 70.6085V9.39152C219 4.20472 214.795 0 209.608 0Z" fill="#BFD2EB"/>
<path d="M179.572 62.7197C173.546 62.7157 167.767 60.3197 163.505 56.0582C159.244 51.7967 156.848 46.0179 156.844 39.9912C156.848 33.9645 159.244 28.1858 163.505 23.9242C167.767 19.6627 173.546 17.2668 179.572 17.2627C185.599 17.2674 191.377 19.6635 195.639 23.9249C199.9 28.1863 202.296 33.9647 202.301 39.9912C202.297 46.0179 199.901 51.7967 195.639 56.0582C191.378 60.3197 185.599 62.7157 179.572 62.7197ZM179.572 19.487C174.131 19.4905 168.913 21.6538 165.065 25.5016C161.217 29.3494 159.054 34.5672 159.05 40.0089C159.054 45.4505 161.217 50.6683 165.065 54.5162C168.913 58.364 174.131 60.5272 179.572 60.5308C185.014 60.5272 190.232 58.364 194.08 54.5162C197.927 50.6683 200.091 45.4505 200.094 40.0089C200.091 34.5672 197.927 29.3494 194.08 25.5016C190.232 21.6538 185.014 19.4905 179.572 19.487Z" fill="#351D36"/>
<path d="M179.572 41.1033C179.442 41.1035 179.312 41.0804 179.19 41.0349C178.979 40.9569 178.796 40.8158 178.667 40.6308C178.538 40.4457 178.469 40.2256 178.469 40V18.3748C178.469 18.0822 178.585 17.8016 178.792 17.5946C178.999 17.3877 179.279 17.2715 179.572 17.2715C179.865 17.2715 180.145 17.3877 180.352 17.5946C180.559 17.8016 180.675 18.0822 180.675 18.3748V36.9923L192.739 22.8345C192.928 22.6147 193.197 22.4782 193.486 22.4547C193.775 22.4312 194.062 22.5224 194.284 22.7087C194.504 22.8979 194.64 23.1661 194.664 23.4552C194.687 23.7443 194.596 24.031 194.41 24.2533L180.411 40.7084C180.308 40.8311 180.18 40.93 180.035 40.9982C179.89 41.0664 179.732 41.1023 179.572 41.1033Z" fill="#351D36"/>
<path d="M193.58 57.5648C193.42 57.5648 193.262 57.5301 193.117 57.4631C192.971 57.396 192.843 57.2982 192.739 57.1764L179.058 41.1031H157.951C157.658 41.1031 157.378 40.9869 157.171 40.78C156.964 40.5731 156.848 40.2924 156.848 39.9998C156.848 39.7072 156.964 39.4266 157.171 39.2196C157.378 39.0127 157.658 38.8965 157.951 38.8965H179.576C179.736 38.8967 179.893 38.9316 180.038 38.9987C180.183 39.0657 180.311 39.1633 180.415 39.2849L194.425 55.7465C194.519 55.8569 194.59 55.9847 194.634 56.1226C194.679 56.2606 194.696 56.4059 194.684 56.5504C194.673 56.6949 194.632 56.8356 194.566 56.9646C194.5 57.0936 194.409 57.2083 194.299 57.3022C194.098 57.4728 193.843 57.5659 193.58 57.5648Z" fill="#351D36"/>
<path d="M85.4966 7H7.32344C3.27881 7 0 10.2788 0 14.3234V92.4966C0 96.5412 3.27881 99.82 7.32344 99.82H85.4966C89.5412 99.82 92.82 96.5412 92.82 92.4966V14.3234C92.82 10.2788 89.5412 7 85.4966 7Z" fill="#351D36"/>
<path d="M75.4338 66.9054H75.2206L70.6928 66.2779C69.1681 66.0712 67.7534 65.37 66.6657 64.2817C65.578 63.1934 64.8774 61.7783 64.6715 60.2535L64.0283 55.5469H62.7481L62.1048 60.2535C61.8989 61.7783 61.1985 63.1934 60.1108 64.2817C59.0231 65.37 57.6082 66.0712 56.0835 66.2779L51.5559 66.9054H51.377V68.4021H51.5934L56.1182 69.0297C57.6427 69.2368 59.057 69.9383 60.1446 71.0264C61.2323 72.1146 61.9331 73.5295 62.1394 75.0541L62.767 79.7606H64.0502L64.6778 75.0541C64.8848 73.5292 65.5861 72.1143 66.6743 71.0261C67.7624 69.938 69.1774 69.2367 70.7023 69.0297L75.2268 68.4021H75.4056L75.4338 66.9054Z" fill="url(#paint0_linear_602_9)"/>
<path d="M40.8214 40.5481H40.608L36.0834 39.9048C34.5581 39.6988 33.1426 38.9978 32.0543 37.9095C30.966 36.8212 30.2649 35.4057 30.0589 33.8804L29.4314 29.1738H28.1292L27.486 33.8804C27.2801 35.4052 26.5796 36.8203 25.4919 37.9086C24.4042 38.9969 22.9894 39.6982 21.4647 39.9048L16.9464 40.5481H16.7676V42.0448H16.9809L21.5055 42.6723C23.03 42.8803 24.4444 43.582 25.5324 44.6699C26.6203 45.7579 27.3219 47.1722 27.53 48.6967L28.1575 53.4033H29.4408L30.084 48.6967C30.2904 47.1721 30.9911 45.7573 32.0787 44.6691C33.1664 43.5809 34.5808 42.8795 36.1053 42.6723L40.6299 42.0448H40.8088L40.8214 40.5481Z" fill="white"/>
<path d="M161.221 100H112.718C107.351 100 103 104.351 103 109.718V158.221C103 163.588 107.351 167.939 112.718 167.939H161.221C166.588 167.939 170.939 163.588 170.939 158.221V109.718C170.939 104.351 166.588 100 161.221 100Z" fill="url(#paint1_linear_602_9)"/>
<path d="M283.581 121.265H137.361C131.446 121.265 126.65 126.06 126.65 131.975V235.142C126.65 241.057 131.446 245.852 137.361 245.852H283.581C289.496 245.852 294.291 241.057 294.291 235.142V131.975C294.291 126.06 289.496 121.265 283.581 121.265Z" fill="#BFD2EB"/>
<path d="M179.352 133.684C169.885 133.685 160.806 137.446 154.112 144.14C147.418 150.834 143.657 159.913 143.656 169.379C143.656 178.847 147.417 187.927 154.111 194.622C160.805 201.316 169.884 205.078 179.352 205.079C188.82 205.079 197.901 201.318 204.596 194.623C211.291 187.928 215.052 178.848 215.052 169.379C215.051 159.912 211.289 150.833 204.594 144.138C197.899 137.444 188.819 133.684 179.352 133.684ZM179.352 190.124C173.851 190.124 168.576 187.939 164.686 184.049C160.797 180.16 158.611 174.884 158.611 169.383C158.611 163.883 160.797 158.607 164.686 154.718C168.576 150.828 173.851 148.643 179.352 148.643C182.076 148.642 184.774 149.178 187.29 150.22C189.807 151.263 192.094 152.79 194.02 154.716C195.947 156.642 197.475 158.929 198.517 161.445C199.56 163.962 200.097 166.659 200.097 169.383C200.096 172.107 199.559 174.804 198.516 177.32C197.473 179.836 195.945 182.122 194.019 184.048C192.093 185.974 189.806 187.501 187.289 188.543C184.773 189.584 182.076 190.12 179.352 190.12V190.124Z" fill="url(#paint2_linear_602_9)"/>
<path d="M179.354 148.635V169.379H158.613C158.613 166.655 159.149 163.958 160.191 161.441C161.233 158.924 162.761 156.637 164.687 154.711C166.613 152.785 168.899 151.256 171.416 150.214C173.932 149.171 176.63 148.635 179.354 148.635Z" fill="#FFB567"/>
<path d="M269.755 162.59H231.166C230.342 162.59 229.674 163.258 229.674 164.082V168.263C229.674 169.087 230.342 169.755 231.166 169.755H269.755C270.579 169.755 271.247 169.087 271.247 168.263V164.082C271.247 163.258 270.579 162.59 269.755 162.59Z" fill="white"/>
<path d="M269.755 183.559H231.166C230.342 183.559 229.674 184.227 229.674 185.051V189.232C229.674 190.056 230.342 190.724 231.166 190.724H269.755C270.579 190.724 271.247 190.056 271.247 189.232V185.051C271.247 184.227 270.579 183.559 269.755 183.559Z" fill="white"/>
<path d="M248.971 210H210.383C209.559 210 208.891 210.668 208.891 211.492V215.673C208.891 216.497 209.559 217.166 210.383 217.166H248.971C249.796 217.166 250.464 216.497 250.464 215.673V211.492C250.464 210.668 249.796 210 248.971 210Z" fill="#F1D7E0"/>
<path d="M198.649 222.091H160.061C159.236 222.091 158.568 222.759 158.568 223.583V227.764C158.568 228.588 159.236 229.256 160.061 229.256H198.649C199.473 229.256 200.141 228.588 200.141 227.764V223.583C200.141 222.759 199.473 222.091 198.649 222.091Z" fill="#BFD2EB"/>
<path d="M237.946 236H34.7282C28.2509 236 23 241.251 23 247.728V367.596C23 374.074 28.2509 379.325 34.7282 379.325H237.946C244.423 379.325 249.674 374.074 249.674 367.596V247.728C249.674 241.251 244.423 236 237.946 236Z" fill="url(#paint3_linear_602_9)"/>
<path d="M96.1389 355.245C87.9247 355.245 84.9453 347.417 82.3003 340.464C79.3691 332.771 77.1897 328.116 71.8722 328.295C67.2099 328.454 63.9718 336.102 62.4579 340.651C61.0865 344.906 60.0613 349.265 59.3922 353.686C59.3617 353.91 59.2872 354.126 59.1731 354.322C59.059 354.518 58.9075 354.689 58.7272 354.826C58.547 354.963 58.3414 355.063 58.1224 355.121C57.9034 355.179 57.6751 355.192 57.4507 355.162C57.2263 355.131 57.0101 355.057 56.8145 354.943C56.6189 354.829 56.4477 354.677 56.3106 354.497C56.1736 354.316 56.0733 354.111 56.0157 353.892C55.9581 353.673 55.9442 353.445 55.9748 353.22C56.6651 348.601 57.7342 344.046 59.1715 339.602C62.3682 329.988 66.6029 325.026 71.7549 324.85C79.9381 324.567 82.9038 332.364 85.5211 339.24C88.6454 347.448 91.0007 352.386 97.2459 351.737C103.388 351.1 106.946 340.261 110.388 329.778C114.243 318.053 118.23 305.897 126.941 305.897C135.534 305.897 139.483 318.312 143.3 330.309C146.655 340.858 150.121 351.755 155.877 351.755C156.014 351.755 156.152 351.755 156.294 351.755C166.487 350.834 169.988 332.561 173.371 314.887C175.15 305.611 176.985 296.021 179.847 288.879C183.271 280.32 187.864 276.161 193.892 276.161C201.679 276.161 207.421 285.62 211.438 305.076C214.7 320.877 216.118 340.109 216.731 353.458C216.752 353.915 216.591 354.36 216.283 354.698C215.975 355.035 215.546 355.237 215.09 355.258C214.863 355.269 214.637 355.235 214.424 355.158C214.211 355.081 214.015 354.963 213.847 354.81C213.68 354.657 213.544 354.473 213.448 354.268C213.351 354.062 213.297 353.84 213.286 353.613C211.155 307.277 203.907 279.61 193.892 279.61C183.64 279.61 180.143 297.886 176.757 315.536C173.133 334.464 169.384 354.038 156.601 355.193C147.838 355.976 143.862 343.468 140.014 331.374C136.565 320.557 133.013 309.366 126.941 309.366C120.733 309.366 117.144 320.301 113.671 330.874C109.878 342.403 105.974 354.324 97.608 355.189C97.1196 355.233 96.6293 355.252 96.1389 355.245Z" fill="#351D36"/>
<path d="M227.083 257.643H101.673C101.216 257.643 100.778 257.461 100.454 257.138C100.131 256.814 99.9492 256.376 99.9492 255.919C99.9492 255.461 100.131 255.023 100.454 254.699C100.778 254.376 101.216 254.194 101.673 254.194H227.083C227.541 254.194 227.979 254.376 228.303 254.699C228.626 255.023 228.808 255.461 228.808 255.919C228.808 256.376 228.626 256.814 228.303 257.138C227.979 257.461 227.541 257.643 227.083 257.643Z" fill="#351D36"/>
<path d="M84.1479 257.643H48.7047C48.2474 257.643 47.8089 257.461 47.4855 257.138C47.1622 256.814 46.9805 256.376 46.9805 255.919C46.9805 255.461 47.1622 255.023 47.4855 254.699C47.8089 254.376 48.2474 254.194 48.7047 254.194H84.1479C84.6052 254.194 85.0438 254.376 85.3672 254.699C85.6905 255.023 85.8722 255.461 85.8722 255.919C85.8722 256.376 85.6905 256.814 85.3672 257.138C85.0438 257.461 84.6052 257.643 84.1479 257.643Z" fill="#FFB567"/>
<defs>
<linearGradient id="paint0_linear_602_9" x1="80.793" y1="99.3651" x2="56.6954" y2="55.4214" gradientUnits="userSpaceOnUse">
<stop offset="0.46" stop-color="white"/>
<stop offset="0.58" stop-color="#FFE0BF"/>
<stop offset="0.67" stop-color="#FFC98F"/>
<stop offset="0.75" stop-color="#FFBA72"/>
<stop offset="0.79" stop-color="#FFB567"/>
</linearGradient>
<linearGradient id="paint1_linear_602_9" x1="70.0448" y1="87.6853" x2="122.564" y2="124.009" gradientUnits="userSpaceOnUse">
<stop offset="0.31" stop-color="white"/>
<stop offset="0.49" stop-color="#BEB6BE"/>
<stop offset="0.67" stop-color="#837584"/>
<stop offset="0.82" stop-color="#59455A"/>
<stop offset="0.93" stop-color="#3F2840"/>
<stop offset="1" stop-color="#351D36"/>
</linearGradient>
<linearGradient id="paint2_linear_602_9" x1="220.125" y1="206.375" x2="171.326" y2="162.094" gradientUnits="userSpaceOnUse">
<stop offset="0.06" stop-color="white"/>
<stop offset="0.25" stop-color="#BEB6BE"/>
<stop offset="0.43" stop-color="#837584"/>
<stop offset="0.59" stop-color="#59455A"/>
<stop offset="0.71" stop-color="#3F2840"/>
<stop offset="0.78" stop-color="#351D36"/>
</linearGradient>
<linearGradient id="paint3_linear_602_9" x1="23" y1="307.662" x2="249.674" y2="307.662" gradientUnits="userSpaceOnUse">
<stop offset="0.19" stop-color="white"/>
<stop offset="0.75" stop-color="#F1D7E0"/>
</linearGradient>
</defs>
</svg>
