<svg width="1173" height="1080" viewBox="0 0 1173 1080" fill="none" xmlns="http://www.w3.org/2000/svg">
<path d="M930.015 516.082C872.756 508.188 827.343 462.795 819.445 405.56L807.599 319.215H803.649L720.722 307.867C663.463 299.973 618.05 254.58 610.152 197.345L598.799 111H575.599L563.752 197.345C555.854 254.58 510.442 299.973 453.182 307.867L370.255 319.215H366.799L354.953 405.56C347.055 462.795 301.642 508.188 244.383 516.082L158 527.924V551.114L244.383 562.955C301.642 570.85 347.055 616.243 354.953 673.477L366.799 759.823H368.774L452.689 771.664C509.948 779.559 555.361 824.951 563.259 882.186L575.105 968.531H598.305L610.152 882.186C618.05 824.951 663.463 779.559 720.722 771.664L804.637 759.823H807.105L818.952 673.477C826.849 616.243 872.262 570.85 929.522 562.955L1015.9 551.114V527.924L930.015 516.082ZM721.216 355.234L780.45 346.846L772.058 405.56C764.16 462.795 718.748 508.188 661.488 516.082L602.254 524.47L610.646 465.755C618.544 408.027 663.956 363.128 721.216 355.234ZM563.259 465.262L571.65 523.977L512.416 515.589C455.157 507.695 409.744 462.302 401.846 405.067L393.455 346.352L452.689 354.74C509.948 363.128 555.361 408.028 563.259 465.262ZM452.689 724.298L393.455 732.685L401.846 673.971C409.744 616.736 455.157 571.343 512.416 563.449L571.65 555.061L563.259 613.776C555.361 671.01 509.948 716.403 452.689 724.298ZM610.646 613.776L602.254 555.061L661.488 563.449C718.748 571.343 764.16 616.736 772.058 673.971L780.45 732.685L721.216 724.298C663.956 716.403 618.544 671.01 610.646 613.776Z" fill="#FFB567"/>
</svg>
