<svg width="426" height="472" viewBox="0 0 426 472" fill="none" xmlns="http://www.w3.org/2000/svg">
<path d="M71.0442 105.796H70.6553L62.4879 104.63C59.7654 104.242 57.1726 102.947 55.228 101.005C53.2834 99.0621 51.987 96.4723 51.5981 93.7529L50.5609 85.3359H48.2274L47.0606 93.7529C46.6717 96.4723 45.3753 99.0621 43.4307 101.005C41.4861 102.947 38.8933 104.242 36.1708 104.63L28.0034 105.796H27.7441V108.515H28.1331L36.3004 109.681C39.0229 110.069 41.6157 111.364 43.5603 113.306C45.5049 115.249 46.8014 117.839 47.1903 120.558L48.357 128.975H50.5609L51.7277 120.558C52.1166 117.839 53.413 115.249 55.3577 113.306C57.3023 111.364 59.8951 110.069 62.6175 109.681L70.7849 108.515H71.0442V105.796Z" fill="#FFB567"/>
<path d="M211.832 244.611C161.661 244.611 120.824 203.821 120.824 153.837C120.824 103.723 161.661 63.0625 211.832 63.0625C262.003 63.0625 302.84 103.853 302.84 153.837C302.84 203.821 262.003 244.611 211.832 244.611ZM211.832 67.4652C164.124 67.4652 125.362 106.183 125.362 153.707C125.362 201.36 164.124 240.079 211.832 240.079C259.54 240.079 298.303 201.36 298.303 153.707C298.303 106.183 259.54 67.4652 211.832 67.4652ZM211.832 210.943C200.553 210.943 189.404 207.576 180.07 201.36C170.606 195.145 163.346 186.21 158.939 175.721C154.66 165.232 153.494 153.837 155.698 142.7C157.902 131.564 163.346 121.464 171.384 113.435C179.422 105.407 189.534 99.9678 200.683 97.7665C211.832 95.5651 223.241 96.7305 233.741 101.004C244.242 105.277 253.188 112.658 259.41 122.111C265.763 131.564 269.004 142.571 269.004 153.837C269.004 168.987 262.911 183.49 252.28 194.238C241.52 204.857 227 210.943 211.832 210.943ZM211.832 101.133C201.461 101.133 191.219 104.241 182.533 109.939C173.847 115.766 167.106 123.924 163.087 133.506C159.068 143.089 158.031 153.707 160.105 163.937C162.18 174.167 167.106 183.49 174.496 190.872C181.885 198.253 191.219 203.303 201.461 205.245C211.702 207.317 222.333 206.281 231.926 202.267C241.52 198.253 249.817 191.519 255.521 182.843C261.355 174.167 264.337 164.067 264.337 153.578C264.337 139.593 258.762 126.255 248.909 116.413C239.186 106.701 225.833 101.133 211.832 101.133Z" fill="url(#paint0_linear_489_1184)"/>
<path d="M151.94 110.716C182.276 110.716 206.908 86.1123 206.908 55.8111C206.908 25.5098 182.276 0.90625 151.94 0.90625C121.604 0.90625 96.9727 25.5098 96.9727 55.8111C96.9727 86.1123 121.475 110.716 151.94 110.716Z" fill="url(#paint1_linear_489_1184)"/>
<path d="M259.023 13.0787H258.764L253.578 12.3018C251.763 12.0428 250.208 11.2658 248.911 9.97092C247.615 8.67599 246.837 7.12209 246.578 5.30919L245.8 0H244.374L243.596 5.43868C243.337 7.25158 242.559 8.80549 241.262 10.1004C239.966 11.3953 238.41 12.1723 236.595 12.4313L231.41 13.2082H231.15V14.8916H231.41L236.595 15.6686C238.41 15.9276 239.966 16.7045 241.262 17.9995C242.559 19.2944 243.337 20.8483 243.596 22.6612L244.374 28.0999H245.8L246.578 22.6612C246.837 20.8483 247.615 19.2944 248.911 17.9995C250.208 16.7045 251.763 15.9276 253.578 15.6686L258.764 14.8916H259.023V13.0787Z" fill="#F1D7E0"/>
<path d="M27.7432 230.108H27.4839L22.2982 229.331C20.4833 229.072 18.9276 228.295 17.6312 227C16.3348 225.705 15.5569 224.151 15.2976 222.338L14.5198 216.899H13.0937L12.3159 222.338C12.0566 224.151 11.2788 225.705 9.98235 227C8.68594 228.295 7.13025 229.072 5.31528 229.331L0.129641 230.108H0V231.791H0.259282L5.44492 232.568C7.25989 232.827 8.81558 233.604 10.112 234.899C11.4084 236.194 12.1862 237.748 12.4455 239.561L13.2234 244.999H14.6494L15.4273 239.561C15.6865 237.748 16.4644 236.194 17.7608 234.899C19.0572 233.604 20.6129 232.827 22.4279 232.568L27.6135 231.791H27.8728L27.7432 230.108Z" fill="#BFD2EB"/>
<path d="M331.492 314.019H331.103L322.936 312.854C320.213 312.465 317.621 311.171 315.676 309.228C313.731 307.286 312.435 304.696 312.046 301.977L310.879 293.56H308.546L307.379 301.977C306.99 304.696 305.694 307.286 303.749 309.228C301.804 311.171 299.212 312.465 296.489 312.854L288.322 314.019H288.062V316.739H288.451L296.619 317.904C299.341 318.293 301.934 319.588 303.879 321.53C305.823 323.472 307.12 326.062 307.509 328.782L308.675 337.199H310.879L312.046 328.782C312.435 326.062 313.731 323.472 315.676 321.53C317.621 319.588 320.213 318.293 322.936 317.904L331.103 316.739H331.363L331.492 314.019Z" fill="#FFB567"/>
<path d="M210.018 134.025H93.7301C81.155 134.025 71.043 144.126 71.043 156.687V272.712C71.043 285.273 81.155 295.373 93.7301 295.373H210.018C222.593 295.373 232.705 285.273 232.705 272.712V156.687C232.705 144.255 222.464 134.025 210.018 134.025Z" fill="url(#paint2_linear_489_1184)"/>
<path d="M190.961 165.75H112.788C107.213 165.75 102.676 170.282 102.676 175.85V253.805C102.676 259.373 107.213 263.905 112.788 263.905H190.832C196.406 263.905 200.944 259.373 200.944 253.805V175.85C200.944 170.153 196.536 165.75 190.961 165.75Z" fill="url(#paint3_linear_489_1184)"/>
<path d="M151.809 240.208C165.914 240.208 177.348 228.787 177.348 214.698C177.348 200.61 165.914 189.188 151.809 189.188C137.704 189.188 126.27 200.61 126.27 214.698C126.27 228.787 137.704 240.208 151.809 240.208Z" fill="white"/>
<path d="M264.079 305.473C266.543 312.724 267.32 320.364 266.543 328.004L264.857 344.32V344.45C263.82 361.154 260.45 400.391 252.282 416.189C246.578 427.196 231.151 451.022 231.151 455.813L230.891 461.77C230.632 467.597 225.965 472.129 220.131 472.129H137.161C131.198 472.129 126.401 467.338 126.401 461.382V455.813C126.401 451.67 114.863 421.368 107.862 413.34C100.991 405.441 87.6382 395.34 86.4714 384.204L81.0265 295.243C80.7672 291.876 82.9711 288.768 86.3418 287.862L87.8975 287.473C98.917 284.365 110.455 291.099 113.048 302.365C116.937 319.328 121.993 340.695 122.512 340.954C123.289 341.472 124.197 341.86 125.234 341.731C126.142 341.601 127.049 341.213 127.697 340.565C128.345 339.918 128.734 338.882 128.734 337.975L136.254 227C136.383 225.705 136.383 224.41 136.513 223.115C136.642 221.82 136.772 219.36 137.68 216.641C142.606 201.62 164.645 203.951 166.33 219.749L172.294 277.373C172.294 280.092 175.016 282.035 177.609 281.128L183.313 279.186C185.647 278.409 187.98 278.15 190.314 278.409C192.647 278.668 194.981 279.574 196.925 280.869L200.944 283.459C204.574 285.79 208.982 286.567 213.131 285.531L217.279 284.495C220.002 283.847 222.983 283.977 225.706 284.754C228.428 285.66 230.891 287.214 232.836 289.286L233.225 289.675C236.596 293.43 241.652 295.372 246.708 294.595C248.004 294.466 249.171 294.336 250.467 294.466C256.949 295.243 262.135 299.645 264.079 305.473Z" fill="url(#paint4_linear_489_1184)"/>
<path d="M397.479 47.0059H278.728C272.116 47.0059 266.801 52.3151 266.801 58.9192V251.992C266.801 258.597 272.116 263.906 278.728 263.906H397.479C404.091 263.906 409.406 258.597 409.406 251.992V58.9192C409.406 52.3151 404.091 47.0059 397.479 47.0059Z" fill="#FFB567"/>
<path d="M305.046 243.705C304.397 243.705 303.879 243.446 303.49 243.057C303.101 242.669 302.842 242.021 302.842 241.503V70.5734C302.842 69.926 303.101 69.408 303.49 69.0195C303.879 68.6311 304.527 68.3721 305.046 68.3721C305.694 68.3721 306.212 68.6311 306.601 69.0195C306.99 69.408 307.25 70.0555 307.25 70.5734V241.503C307.25 242.151 306.99 242.669 306.601 243.057C306.212 243.446 305.694 243.705 305.046 243.705Z" fill="#332238"/>
<path d="M394.498 274.135C411.87 274.135 426.001 260.021 426.001 242.669C426.001 225.317 411.87 211.202 394.498 211.202C377.126 211.202 362.995 225.317 362.995 242.669C362.865 260.021 376.996 274.135 394.498 274.135Z" fill="#BFD2EB"/>
<path d="M390.867 256.136C390.349 256.006 389.83 255.747 389.441 255.229L380.885 243.963C380.496 243.446 380.366 242.928 380.496 242.28C380.626 241.633 380.885 241.115 381.403 240.726C381.922 240.338 382.44 240.208 383.089 240.338C383.737 240.467 384.255 240.726 384.644 241.244L391.386 250.179L406.294 231.662C406.683 231.273 407.202 231.014 407.85 230.885C408.369 230.885 409.017 231.014 409.406 231.403C409.795 231.791 410.184 232.309 410.184 232.827C410.313 233.345 410.184 233.993 409.795 234.381L393.071 255.229C392.812 255.488 392.552 255.747 392.293 255.877C392.034 256.006 391.645 256.136 391.256 256.136C391.126 256.136 390.997 256.136 390.867 256.136Z" fill="#332238"/>
<path d="M130.29 83.1337C129.771 83.1337 129.253 83.0042 128.864 82.6157C128.345 82.2273 128.086 81.7093 128.086 81.0618C128.086 80.4144 128.216 79.8964 128.604 79.3784L171.775 25.898C172.164 25.5096 172.682 25.1211 173.331 25.1211C173.979 25.1211 174.497 25.2506 175.016 25.6391C175.534 26.0275 175.794 26.5455 175.794 27.0635C175.923 27.5815 175.664 28.2289 175.405 28.7469L132.234 82.3568C131.975 82.6157 131.716 82.8747 131.457 83.0042C130.938 83.1337 130.679 83.1337 130.29 83.1337Z" fill="#332238"/>
<path d="M133.269 48.9481C137.548 48.9481 140.918 45.5813 140.918 41.308C140.918 37.0348 137.548 33.668 133.269 33.668C128.991 33.668 125.621 37.0348 125.621 41.308C125.491 45.5813 128.991 48.9481 133.269 48.9481Z" fill="white"/>
<path d="M168.273 78.2137C172.552 78.2137 175.922 74.8469 175.922 70.5736C175.922 66.3004 172.552 62.9336 168.273 62.9336C163.995 62.9336 160.625 66.3004 160.625 70.5736C160.495 74.8469 163.995 78.2137 168.273 78.2137Z" fill="white"/>
<path d="M388.664 109.81H328.641V121.334H388.664V109.81Z" fill="white"/>
<path d="M388.664 68.3721H328.641V79.8969H388.664V68.3721Z" fill="white"/>
<path d="M388.664 135.189H328.641V146.714H388.664V135.189Z" fill="white"/>
<path d="M388.664 159.405H328.641V170.93H388.664V159.405Z" fill="white"/>
<path d="M388.664 186.21H328.641V197.735H388.664V186.21Z" fill="white"/>
<defs>
<linearGradient id="paint0_linear_489_1184" x1="156.486" y1="198.09" x2="298.212" y2="84.3182" gradientUnits="userSpaceOnUse">
<stop stop-color="white" stop-opacity="0"/>
<stop offset="0.0784068" stop-color="#FFF2E5" stop-opacity="0.1075"/>
<stop offset="0.2282" stop-color="#FFDCB8" stop-opacity="0.3128"/>
<stop offset="0.3725" stop-color="#FFCB95" stop-opacity="0.5106"/>
<stop offset="0.5078" stop-color="#FFBF7C" stop-opacity="0.6959"/>
<stop offset="0.6305" stop-color="#FFB86C" stop-opacity="0.8642"/>
<stop offset="0.7296" stop-color="#FFB567"/>
</linearGradient>
<linearGradient id="paint1_linear_489_1184" x1="191.5" y1="124" x2="136.136" y2="30.2934" gradientUnits="userSpaceOnUse">
<stop stop-color="white" stop-opacity="0"/>
<stop offset="0.0853039" stop-color="#EBF0F8" stop-opacity="0.1966"/>
<stop offset="0.2107" stop-color="#D4DEEF" stop-opacity="0.4857"/>
<stop offset="0.3295" stop-color="#C7D4EA" stop-opacity="0.7595"/>
<stop offset="0.4338" stop-color="#C2D0E8"/>
</linearGradient>
<linearGradient id="paint2_linear_489_1184" x1="213.267" y1="301.109" x2="91.8866" y2="129.987" gradientUnits="userSpaceOnUse">
<stop stop-color="#EBB36B"/>
<stop offset="0.0159116" stop-color="#E0AB68"/>
<stop offset="0.1011" stop-color="#AC815A"/>
<stop offset="0.1848" stop-color="#815F4E"/>
<stop offset="0.2651" stop-color="#5F4544"/>
<stop offset="0.3412" stop-color="#47313D"/>
<stop offset="0.4113" stop-color="#382639"/>
<stop offset="0.4699" stop-color="#332238"/>
</linearGradient>
<linearGradient id="paint3_linear_489_1184" x1="196.989" y1="280.983" x2="116.313" y2="162.26" gradientUnits="userSpaceOnUse">
<stop stop-color="#EBB36B" stop-opacity="0"/>
<stop offset="0.0590551" stop-color="#ECBB84" stop-opacity="0.1047"/>
<stop offset="0.1525" stop-color="#EEC5A5" stop-opacity="0.2704"/>
<stop offset="0.2486" stop-color="#EFCDBF" stop-opacity="0.4408"/>
<stop offset="0.3474" stop-color="#F0D3D1" stop-opacity="0.6159"/>
<stop offset="0.4503" stop-color="#F1D6DC" stop-opacity="0.7984"/>
<stop offset="0.564" stop-color="#F1D7E0"/>
</linearGradient>
<linearGradient id="paint4_linear_489_1184" x1="220.378" y1="500.942" x2="132.234" y2="196.023" gradientUnits="userSpaceOnUse">
<stop stop-color="white" stop-opacity="0"/>
<stop offset="0.0958551" stop-color="#EBF0F8" stop-opacity="0.1966"/>
<stop offset="0.2367" stop-color="#D4DEEF" stop-opacity="0.4857"/>
<stop offset="0.3702" stop-color="#C7D4EA" stop-opacity="0.7595"/>
<stop offset="0.4875" stop-color="#C2D0E8"/>
</linearGradient>
</defs>
</svg>
