<svg width="429" height="451" viewBox="0 0 429 451" fill="none" xmlns="http://www.w3.org/2000/svg">
<path d="M141.702 263.105C143.478 265.394 145.254 267.556 147.157 269.718C134.09 274.296 120.389 276.458 106.688 276.458C99.2037 276.585 91.719 275.822 84.488 274.55C83.4731 274.296 82.5851 273.66 82.0777 272.77C81.5702 271.88 81.3165 270.863 81.5702 269.845C81.824 268.828 82.3314 267.938 83.2194 267.302C84.1074 266.666 85.1223 266.539 86.1372 266.666C86.3909 266.793 113.285 272.261 141.702 263.105Z" fill="#C2D0E8"/>
<path d="M212.997 298.838C214.266 298.838 215.661 298.838 216.93 298.711V336.098C216.93 337.115 216.549 338.132 215.788 338.895C215.027 339.658 214.012 340.04 212.997 340.04C211.982 340.04 210.967 339.658 210.206 338.895C209.445 338.132 209.064 337.115 209.064 336.098V298.711C210.46 298.711 211.728 298.838 212.997 298.838Z" fill="#FFB567"/>
<path d="M341.631 274.55C334.274 275.949 326.789 276.585 319.431 276.458C305.603 276.585 291.903 274.296 278.963 269.718C280.866 267.556 282.769 265.394 284.418 263.105C312.834 272.134 339.729 266.793 340.109 266.666C341.124 266.412 342.139 266.666 343.027 267.302C343.915 267.938 344.549 268.828 344.676 269.845C344.93 270.863 344.676 271.88 344.169 272.77C343.661 273.66 342.773 274.296 341.631 274.55Z" fill="#FFB567"/>
<path d="M284.418 263.105C282.642 265.394 280.866 267.556 278.963 269.718C268.688 266.03 259.046 260.689 250.42 253.695C234.943 241.106 223.779 223.684 217.056 201.557V298.584C215.787 298.584 214.392 298.711 213.123 298.711C211.855 298.711 210.459 298.711 209.191 298.584V201.43C202.467 223.557 191.303 240.978 175.826 253.568C167.327 260.435 157.686 265.903 147.283 269.591C145.38 267.429 143.477 265.267 141.828 262.978C152.357 259.672 162.253 254.331 170.879 247.337C196.251 226.481 209.191 191.13 209.191 142.044C209.191 141.026 209.571 140.009 210.332 139.246C211.093 138.483 212.108 138.102 213.123 138.102C214.138 138.102 215.153 138.483 215.914 139.246C216.675 140.009 217.056 141.026 217.056 142.044C217.056 191.13 229.995 226.609 255.367 247.337C263.867 254.585 273.762 259.799 284.418 263.105Z" fill="white"/>
<path d="M265.77 62.5654C261.457 61.9295 257.524 60.022 254.48 56.8429C251.435 53.7909 249.405 49.7217 248.898 45.398L247.122 32.0457H246.487L233.802 30.2654C229.488 29.6295 225.556 27.722 222.511 24.5429C219.466 21.4909 217.437 17.4217 216.929 13.098L214.899 0H211.347L209.571 13.3524C208.937 17.676 207.034 21.6181 203.863 24.7972C200.818 27.8492 196.885 29.8839 192.572 30.5197L179.886 32.3H179.379L177.603 45.6524C176.968 49.976 175.066 53.9181 171.894 57.0972C168.849 60.1492 164.917 62.1839 160.604 62.8197L147.41 64.6V68.1606L160.604 69.9409C164.917 70.5768 168.849 72.4843 171.894 75.6634C174.939 78.7154 176.968 82.7846 177.603 87.1083L179.379 100.461H179.632L192.572 102.241C196.885 102.877 200.818 104.784 203.863 107.963C206.907 111.015 208.937 115.085 209.444 119.408L211.221 132.761H214.773L216.549 119.408C217.183 115.085 219.086 111.143 222.13 107.963C225.175 104.911 229.108 102.877 233.421 102.241L246.361 100.461H246.741L248.517 87.1083C249.151 82.7846 251.054 78.8425 254.226 75.6634C257.271 72.6114 261.203 70.5768 265.516 69.9409L278.71 68.1606V64.6L265.77 62.5654ZM233.675 37.7681L242.809 36.4965L241.54 45.5252C240.906 49.8488 239.003 53.7909 235.958 56.9701C232.913 60.022 228.981 62.0567 224.668 62.6925L215.534 63.9642L216.802 54.9354C217.437 50.6118 219.34 46.5425 222.384 43.4906C225.429 40.3114 229.361 38.4039 233.675 37.7681ZM209.444 54.8083L210.713 63.837L201.579 62.5654C197.266 61.9295 193.333 60.022 190.289 56.8429C187.244 53.7909 185.214 49.7217 184.707 45.398L183.438 36.3693L192.572 37.6409C196.885 38.2768 200.818 40.3114 203.863 43.3634C206.907 46.4154 208.81 50.4846 209.444 54.8083ZM192.445 94.8653L183.311 96.137L184.58 87.1083C185.214 82.7846 187.117 78.8425 190.162 75.6634C193.206 72.6114 197.139 70.5768 201.452 69.9409L210.586 68.6693L209.318 77.698C208.683 82.0217 206.78 86.0909 203.736 89.1429C200.818 92.1949 196.759 94.2295 192.445 94.8653ZM216.802 77.698L215.534 68.6693L224.668 69.9409C228.981 70.5768 232.913 72.4843 235.958 75.6634C239.003 78.7154 241.032 82.7846 241.667 87.1083L242.935 96.137L233.802 94.8653C229.488 94.2295 225.556 92.322 222.511 89.1429C219.34 86.0909 217.31 82.0217 216.802 77.698Z" fill="#FFB567"/>
<path d="M212.997 152.853C221.054 152.853 227.586 146.305 227.586 138.229C227.586 130.152 221.054 123.604 212.997 123.604C204.94 123.604 198.408 130.152 198.408 138.229C198.408 146.305 204.94 152.853 212.997 152.853Z" fill="#F1D7E0"/>
<path d="M16.4917 331.393H116.838C125.971 331.393 133.329 324.017 133.329 314.861V214.274C133.329 205.118 125.971 197.742 116.838 197.742H16.4917C7.35785 197.742 0 205.118 0 214.274V314.861C0 324.017 7.35785 331.393 16.4917 331.393Z" fill="url(#paint0_linear_489_1354)"/>
<path d="M311.566 331.393H411.912C421.046 331.393 428.404 324.017 428.404 314.861V214.274C428.404 205.118 421.046 197.742 411.912 197.742H311.566C302.432 197.742 295.074 205.118 295.074 214.274V314.861C295.074 324.017 302.432 331.393 311.566 331.393Z" fill="url(#paint1_linear_489_1354)"/>
<path d="M396.055 219.232H332.625V317.404H396.055V219.232Z" fill="url(#paint2_linear_489_1354)"/>
<path d="M364.338 229.533C381.845 229.533 396.053 224.955 396.053 219.233C396.053 213.511 381.845 208.933 364.338 208.933C346.831 208.933 332.623 213.511 332.623 219.233C332.623 224.828 346.831 229.533 364.338 229.533Z" fill="white"/>
<path d="M395.928 244.03C395.928 249.88 381.72 254.585 364.213 254.585C346.706 254.585 332.498 249.88 332.498 244.03" stroke="white" stroke-miterlimit="10"/>
<path d="M395.928 270.354C395.928 276.203 381.72 280.908 364.213 280.908C346.706 280.908 332.498 276.203 332.498 270.354" stroke="white" stroke-miterlimit="10"/>
<path d="M395.928 296.804C395.928 302.653 381.72 307.358 364.213 307.358C346.706 307.358 332.498 302.653 332.498 296.804" stroke="white" stroke-miterlimit="10"/>
<path d="M276.173 386.837C276.173 402.097 270.718 416.721 260.95 428.293C251.055 439.865 237.481 447.368 222.511 449.657C216.295 450.547 209.952 450.547 203.609 449.657C192.572 448.003 182.17 443.426 173.543 436.304C165.171 429.564 158.701 420.79 154.768 410.871C150.709 400.952 149.186 390.143 150.455 379.461C151.724 368.779 155.529 358.606 161.746 349.832C167.962 341.057 176.208 334.063 185.849 329.485C195.49 324.907 206.146 322.746 216.803 323.381C227.459 324.017 237.734 327.324 246.741 333.046C255.748 338.768 263.233 346.653 268.307 356.063C273.509 365.6 276.173 376.155 276.173 386.837Z" fill="url(#paint3_linear_489_1354)"/>
<path d="M192.318 376.918V446.859C185.468 444.443 179.125 440.882 173.416 436.304V376.918H192.318Z" fill="#FFB567"/>
<path d="M222.511 359.75V449.656C216.295 450.546 209.952 450.546 203.609 449.656V359.75H222.511Z" fill="url(#paint4_linear_489_1354)"/>
<path d="M237.227 445.587C244.204 442.662 250.547 438.593 256.129 433.379L237.227 445.587Z" fill="#FFB567"/>
<path d="M256.002 386.837V433.379C250.547 438.593 244.077 442.663 237.1 445.587V386.837H256.002Z" fill="url(#paint5_linear_489_1354)"/>
<path d="M114.3 149.292C123.548 149.292 131.046 141.777 131.046 132.507C131.046 123.236 123.548 115.721 114.3 115.721C105.052 115.721 97.5547 123.236 97.5547 132.507C97.5547 141.777 105.052 149.292 114.3 149.292Z" fill="#BFD2EB"/>
<path d="M73.8326 178.159C77.7562 178.159 80.9368 174.97 80.9368 171.037C80.9368 167.104 77.7562 163.916 73.8326 163.916C69.9091 163.916 66.7285 167.104 66.7285 171.037C66.7285 174.97 69.9091 178.159 73.8326 178.159Z" fill="#FFB567"/>
<path d="M73.8326 361.277C77.7562 361.277 80.9368 358.088 80.9368 354.155C80.9368 350.222 77.7562 347.034 73.8326 347.034C69.9091 347.034 66.7285 350.222 66.7285 354.155C66.7285 358.088 69.9091 361.277 73.8326 361.277Z" fill="#FFB567"/>
<path d="M363.071 363.82C366.994 363.82 370.175 360.631 370.175 356.698C370.175 352.765 366.994 349.577 363.071 349.577C359.147 349.577 355.967 352.765 355.967 356.698C355.967 360.631 359.147 363.82 363.071 363.82Z" fill="#FFB567"/>
<path d="M325.521 149.292C334.769 149.292 342.266 141.777 342.266 132.507C342.266 123.236 334.769 115.721 325.521 115.721C316.273 115.721 308.775 123.236 308.775 132.507C308.775 141.777 316.273 149.292 325.521 149.292Z" fill="#BFD2EB"/>
<path d="M368.145 178.159C372.069 178.159 375.249 174.97 375.249 171.037C375.249 167.104 372.069 163.916 368.145 163.916C364.222 163.916 361.041 167.104 361.041 171.037C361.041 174.97 364.222 178.159 368.145 178.159Z" fill="#FFB567"/>
<path d="M107.958 420.409C117.207 420.409 124.704 412.893 124.704 403.623C124.704 394.352 117.207 386.837 107.958 386.837C98.7101 386.837 91.2129 394.352 91.2129 403.623C91.2129 412.893 98.7101 420.409 107.958 420.409Z" fill="#BFD2EB"/>
<path d="M322.984 420.409C332.232 420.409 339.729 412.893 339.729 403.623C339.729 394.352 332.232 386.837 322.984 386.837C313.735 386.837 306.238 394.352 306.238 403.623C306.238 412.893 313.735 420.409 322.984 420.409Z" fill="#BFD2EB"/>
<path d="M113.665 251.914H60.0039V236.018C60.0039 233.856 61.7799 232.076 63.9366 232.076H109.733C111.889 232.076 113.665 233.856 113.665 236.018V251.914Z" fill="#351D36"/>
<path d="M119.881 248.989L114.807 304.179C114.68 306.087 113.792 307.867 112.397 309.139C111.001 310.41 109.225 311.173 107.322 311.173H27.5275C25.6246 311.173 23.8486 310.41 22.4531 309.139C21.0577 307.867 20.1697 306.087 20.0428 304.179L13.573 233.73C13.4461 232.712 13.573 231.568 13.9535 230.55C14.3341 229.533 14.8416 228.643 15.6027 227.88C16.3639 227.117 17.2519 226.481 18.1399 226.1C19.1548 225.718 20.1697 225.464 21.1845 225.464H56.1978C58.2275 225.464 60.1304 226.227 61.5259 227.626C62.9213 229.024 63.8093 230.932 63.8093 232.967C63.8093 235.001 64.6973 236.909 66.0928 238.308C67.4883 239.706 69.518 240.597 71.4209 240.597H112.397C113.411 240.597 114.553 240.851 115.441 241.232C116.456 241.614 117.217 242.25 117.978 243.14C118.739 243.903 119.247 244.793 119.501 245.81C119.881 246.828 120.008 247.972 119.881 248.989Z" fill="url(#paint6_linear_489_1354)"/>
<defs>
<linearGradient id="paint0_linear_489_1354" x1="59.7213" y1="367.088" x2="71.0198" y2="201.132" gradientUnits="userSpaceOnUse">
<stop offset="0.36" stop-color="white"/>
<stop offset="0.49" stop-color="#E7EEF7"/>
<stop offset="0.68" stop-color="#CADAEE"/>
<stop offset="0.79" stop-color="#BFD2EB"/>
</linearGradient>
<linearGradient id="paint1_linear_489_1354" x1="436.714" y1="363.492" x2="355.772" y2="257.212" gradientUnits="userSpaceOnUse">
<stop stop-color="white" stop-opacity="0"/>
<stop offset="0.6006" stop-color="#F5E4EA" stop-opacity="0.6006"/>
<stop offset="1" stop-color="#F1D7E0"/>
</linearGradient>
<linearGradient id="paint2_linear_489_1354" x1="364.29" y1="356.462" x2="364.29" y2="230.604" gradientUnits="userSpaceOnUse">
<stop offset="0.1951" stop-color="white" stop-opacity="0"/>
<stop offset="0.2103" stop-color="#FDFDFE" stop-opacity="0.0276214"/>
<stop offset="0.4326" stop-color="#DDE5F2" stop-opacity="0.4301"/>
<stop offset="0.6195" stop-color="#C9D5EB" stop-opacity="0.7686"/>
<stop offset="0.7474" stop-color="#C2D0E8"/>
</linearGradient>
<linearGradient id="paint3_linear_489_1354" x1="213.073" y1="448.571" x2="213.073" y2="321.503" gradientUnits="userSpaceOnUse">
<stop offset="0.19" stop-color="white"/>
<stop offset="0.75" stop-color="#E8D5DE"/>
</linearGradient>
<linearGradient id="paint4_linear_489_1354" x1="213.039" y1="66824.7" x2="213.039" y2="56443" gradientUnits="userSpaceOnUse">
<stop stop-color="white" stop-opacity="0"/>
<stop offset="0.0853039" stop-color="#EBF0F8" stop-opacity="0.1966"/>
<stop offset="0.2107" stop-color="#D4DEEF" stop-opacity="0.4857"/>
<stop offset="0.3295" stop-color="#C7D4EA" stop-opacity="0.7595"/>
<stop offset="0.4338" stop-color="#C2D0E8"/>
</linearGradient>
<linearGradient id="paint5_linear_489_1354" x1="246.607" y1="41923.9" x2="246.607" y2="37977.1" gradientUnits="userSpaceOnUse">
<stop offset="0.24" stop-color="white"/>
<stop offset="0.31" stop-color="#FDFBF8"/>
<stop offset="0.39" stop-color="#FBF3E8"/>
<stop offset="0.49" stop-color="#F7E5CD"/>
<stop offset="0.6" stop-color="#F3D3A8"/>
<stop offset="0.71" stop-color="#EDBC7C"/>
<stop offset="0.75" stop-color="#EBB36B"/>
</linearGradient>
<linearGradient id="paint6_linear_489_1354" x1="128.834" y1="368.642" x2="66.1725" y2="270.464" gradientUnits="userSpaceOnUse">
<stop offset="0.2368" stop-color="#351D36"/>
<stop offset="0.3413" stop-color="#53343E" stop-opacity="0.9963"/>
<stop offset="0.7806" stop-color="#CE925F" stop-opacity="0.9808"/>
<stop offset="0.9741" stop-color="#FFB76C" stop-opacity="0.974"/>
</linearGradient>
</defs>
</svg>
