<svg width="333" height="468" viewBox="0 0 333 468" fill="none" xmlns="http://www.w3.org/2000/svg">
<path d="M39.0433 191.474H38.6764L31.3274 190.43C28.8503 190.094 26.5518 188.955 24.7842 187.188C23.0167 185.42 21.8778 183.122 21.5424 180.645L20.5231 173H18.4387L17.4194 180.645C17.0859 183.122 15.9483 185.42 14.1815 187.188C12.4146 188.956 10.1163 190.095 7.63946 190.43L0.290528 191.474H0V193.905H0.346581L7.69552 194.925C10.1726 195.26 12.4712 196.399 14.2388 198.166C16.0063 199.934 17.1452 202.233 17.4806 204.71L18.4999 212.354H20.5843L21.6035 204.71C21.9387 202.233 23.0768 199.935 24.8433 198.168C26.6099 196.4 28.9073 195.261 31.3835 194.925L38.7325 193.905H39.023L39.0433 191.474Z" fill="#FFB567"/>
<path d="M126.12 211.909H45.8308C37.6691 211.909 31.0527 218.526 31.0527 226.687V350.57C31.0527 358.731 37.6691 365.348 45.8308 365.348H126.12C134.282 365.348 140.898 358.731 140.898 350.57V226.687C140.898 218.526 134.282 211.909 126.12 211.909Z" fill="url(#paint0_linear_489_994)"/>
<path d="M231.962 207.671L247.606 214.527V264.927L230.113 245.752L231.962 207.671Z" fill="#FFB567"/>
<path d="M247.606 68.3949V264.914L230.113 245.739L186.153 197.54C177.212 189.348 162.878 195.92 163.141 208.046C163.757 236.438 176.298 257.781 187.378 271.168C191.843 276.62 194.844 283.121 196.095 290.056C197.347 296.991 196.809 304.131 194.532 310.8C194.497 310.911 194.456 311.014 194.421 311.125C192.033 318.112 190.696 325.414 190.453 332.794H79.5483C75.9387 332.794 72.4768 331.36 69.9237 328.808C67.3707 326.257 65.9354 322.796 65.9336 319.186V68.3949C65.9336 64.7841 67.368 61.3212 69.9213 58.7679C72.4745 56.2147 75.9375 54.7803 79.5483 54.7803H233.977C235.766 54.7785 237.538 55.1292 239.192 55.8126C240.845 56.496 242.347 57.4986 243.613 58.763C244.879 60.0275 245.883 61.5289 246.568 63.1817C247.253 64.8344 247.606 66.6058 247.606 68.3949Z" fill="url(#paint1_linear_489_994)"/>
<path d="M167.449 271.445H166.978L156.985 270.06C153.621 269.601 150.5 268.053 148.1 265.652C145.699 263.25 144.153 260.128 143.696 256.764L142.276 246.376H139.451L138.066 256.764C137.609 260.128 136.063 263.25 133.662 265.652C131.262 268.053 128.141 269.601 124.777 270.06L114.784 271.445H114.348V274.748H114.825L124.811 276.168C128.176 276.624 131.299 278.172 133.7 280.573C136.1 282.975 137.646 286.098 138.101 289.464L139.486 299.851H142.318L143.703 289.464C144.158 286.097 145.705 282.973 148.107 280.571C150.509 278.169 153.633 276.622 156.999 276.168L166.985 274.748H167.38L167.449 271.445Z" fill="#351D36"/>
<path d="M332.959 414.529L268.147 467.326L237.677 409.779C230.918 404.46 222.518 397.535 214.222 389.848C203.658 380.051 196.162 367.4 192.643 353.428C189.124 339.456 189.733 324.764 194.395 311.131C194.395 311.021 194.472 310.917 194.506 310.806C196.783 304.137 197.321 296.997 196.07 290.062C194.818 283.127 191.817 276.626 187.353 271.174C176.272 257.788 163.731 236.417 163.115 208.052C162.852 195.926 177.187 189.354 186.127 197.546L230.087 245.745L247.58 264.92V177.471L297.731 244.644L298.978 246.313V246.354C307.127 257.632 311.196 271.348 310.515 285.246L306.304 371.913L332.959 414.529Z" fill="url(#paint2_linear_489_994)"/>
<path d="M177.234 141.142H140.905V177.471C133.72 177.471 126.696 175.341 120.722 171.349C114.748 167.357 110.091 161.683 107.342 155.045C104.592 148.406 103.872 141.102 105.274 134.055C106.676 127.008 110.136 120.535 115.217 115.454C120.297 110.373 126.771 106.913 133.818 105.512C140.865 104.11 148.169 104.829 154.808 107.579C161.446 110.328 167.12 114.985 171.111 120.959C175.103 126.933 177.234 133.957 177.234 141.142Z" fill="url(#paint3_linear_489_994)"/>
<path d="M177.233 141.143C177.233 150.778 173.406 160.018 166.593 166.831C159.78 173.644 150.539 177.471 140.904 177.471V141.143H177.233Z" fill="url(#paint4_linear_489_994)"/>
<path d="M91.2812 202.193H140.906" stroke="#351D36" stroke-width="4.59555" stroke-miterlimit="10"/>
<path d="M91.2812 217.442H140.906" stroke="#351D36" stroke-width="4.59555" stroke-miterlimit="10"/>
<path d="M190.834 133.518H223.458" stroke="#351D36" stroke-width="4.59555" stroke-miterlimit="10"/>
<path d="M190.834 148.773H223.458" stroke="#351D36" stroke-width="4.59555" stroke-miterlimit="10"/>
<path d="M293.652 170.582C300.64 170.582 306.304 164.917 306.304 157.929C306.304 150.942 300.64 145.277 293.652 145.277C286.665 145.277 281 150.942 281 157.929C281 164.917 286.665 170.582 293.652 170.582Z" fill="#FFB567"/>
<path d="M157.231 416.461C162.881 416.461 167.461 411.881 167.461 406.231C167.461 400.58 162.881 396 157.231 396C151.58 396 147 400.58 147 406.231C147 411.881 151.58 416.461 157.231 416.461Z" fill="#FFB567"/>
<path d="M293.652 111.448C297.366 111.448 300.376 108.438 300.376 104.724C300.376 101.011 297.366 98 293.652 98C289.938 98 286.928 101.011 286.928 104.724C286.928 108.438 289.938 111.448 293.652 111.448Z" fill="url(#paint5_linear_489_994)"/>
<path d="M179.13 19.4371H178.765L171.015 18.3629C168.406 18.0095 165.985 16.8099 164.123 14.9482C162.261 13.0865 161.061 10.6653 160.708 8.05629L159.634 0H157.437L156.363 8.05629C156.009 10.6661 154.809 13.0878 152.946 14.9496C151.083 16.8115 148.661 18.0106 146.051 18.3629L138.306 19.4371H138V21.999H138.365L146.115 23.1001C148.725 23.4538 151.147 24.6542 153.009 26.517C154.871 28.3798 156.07 30.8021 156.422 33.4121L157.496 41.4684H159.693L160.767 33.4121C161.119 30.8021 162.319 28.3798 164.18 26.517C166.042 24.6542 168.464 23.4538 171.074 23.1001L178.824 21.999H179.13V19.4371Z" fill="white"/>
<defs>
<linearGradient id="paint0_linear_489_994" x1="85.9823" y1="454.82" x2="85.9823" y2="245.205" gradientUnits="userSpaceOnUse">
<stop offset="0.31" stop-color="white"/>
<stop offset="0.43" stop-color="#BEB6BE"/>
<stop offset="0.55" stop-color="#837584"/>
<stop offset="0.65" stop-color="#59455A"/>
<stop offset="0.73" stop-color="#3F2840"/>
<stop offset="0.78" stop-color="#351D36"/>
</linearGradient>
<linearGradient id="paint1_linear_489_994" x1="164.394" y1="384.475" x2="151.666" y2="66.2343" gradientUnits="userSpaceOnUse">
<stop offset="0.36" stop-color="white"/>
<stop offset="0.49" stop-color="#E7EEF7"/>
<stop offset="0.68" stop-color="#CADAEE"/>
<stop offset="0.79" stop-color="#BFD2EB"/>
</linearGradient>
<linearGradient id="paint2_linear_489_994" x1="360.313" y1="515.746" x2="233.612" y2="278.764" gradientUnits="userSpaceOnUse">
<stop offset="0.41" stop-color="#FFB567" stop-opacity="0"/>
<stop offset="0.43" stop-color="#FFB567" stop-opacity="0.07"/>
<stop offset="0.53" stop-color="#FFB567" stop-opacity="0.4"/>
<stop offset="0.62" stop-color="#FFB567" stop-opacity="0.66"/>
<stop offset="0.7" stop-color="#FFB567" stop-opacity="0.84"/>
<stop offset="0.76" stop-color="#FFB567" stop-opacity="0.96"/>
<stop offset="0.79" stop-color="#FFB567"/>
</linearGradient>
<linearGradient id="paint3_linear_489_994" x1="142.872" y1="190.421" x2="139.596" y2="108.532" gradientUnits="userSpaceOnUse">
<stop offset="0.19" stop-color="white"/>
<stop offset="0.75" stop-color="#F1D7E0"/>
</linearGradient>
<linearGradient id="paint4_linear_489_994" x1="75071.9" y1="98801.9" x2="72117.6" y2="96278.5" gradientUnits="userSpaceOnUse">
<stop offset="0.31" stop-color="white"/>
<stop offset="0.43" stop-color="#BEB6BE"/>
<stop offset="0.55" stop-color="#837584"/>
<stop offset="0.65" stop-color="#59455A"/>
<stop offset="0.73" stop-color="#3F2840"/>
<stop offset="0.78" stop-color="#351D36"/>
</linearGradient>
<linearGradient id="paint5_linear_489_994" x1="6232.77" y1="2406.16" x2="6493.94" y2="2406.16" gradientUnits="userSpaceOnUse">
<stop offset="0.36" stop-color="white"/>
<stop offset="0.49" stop-color="#E7EEF7"/>
<stop offset="0.68" stop-color="#CADAEE"/>
<stop offset="0.79" stop-color="#BFD2EB"/>
</linearGradient>
</defs>
</svg>
