<svg width="441" height="435" viewBox="0 0 441 435" fill="none" xmlns="http://www.w3.org/2000/svg">
<path d="M33.1603 131.522H125.405C133.801 131.522 140.565 124.761 140.565 116.367V24.155C140.565 15.7615 133.801 9 125.405 9H33.1603C24.7638 9 18 15.7615 18 24.155V116.367C18 124.761 24.7638 131.522 33.1603 131.522Z" fill="url(#paint0_linear_489_1111)"/>
<path d="M54.617 66.1233L30.7104 92.2365L30.5938 44.9062C30.5938 43.6239 31.0602 42.225 31.8765 41.1758L54.617 66.1233Z" fill="url(#paint1_linear_489_1111)"/>
<path d="M127.853 44.79C127.853 43.3911 127.387 42.1088 126.571 41.0596L103.83 66.0071L127.853 92.1203" fill="url(#paint2_linear_489_1111)"/>
<path d="M103.829 66.0068L99.5137 70.6699L103.829 66.0068Z" fill="white"/>
<path d="M127.97 93.4024V92.1201L103.83 66.0068L99.5154 70.6699L95.3172 75.333C93.3347 77.548 90.7691 79.4132 87.9703 80.579C85.1714 81.8613 82.256 82.4442 79.2239 82.4442C76.1919 82.4442 73.1598 81.8613 70.4776 80.579C67.6788 79.4132 65.2298 77.548 63.1307 75.333L54.6176 66.0068L30.7109 92.2367V93.1693C30.7109 96.0837 33.0433 98.5318 36.0754 98.5318C53.1015 98.5318 105.696 98.765 122.722 98.765C125.521 98.6484 127.97 96.3169 127.97 93.4024Z" fill="url(#paint3_linear_489_1111)"/>
<path d="M124.471 39.3104C123.655 38.8441 122.722 38.7275 121.789 38.7275L36.6583 38.8441C35.7253 38.8441 34.7924 39.0773 33.9761 39.427C33.1597 39.8933 32.46 40.4762 31.877 41.1757L54.734 66.0066L63.2471 75.3327C65.3463 77.5477 67.7952 79.2964 70.5941 80.5787C73.3929 81.7445 76.3083 82.4439 79.3404 82.4439C82.3724 82.4439 85.4045 81.861 88.0867 80.5787C90.8855 79.2964 93.3345 77.5477 95.4336 75.3327L103.947 66.0066L126.687 41.0591C126.104 40.3596 125.288 39.7767 124.471 39.3104Z" fill="url(#paint4_linear_489_1111)"/>
<path d="M310.416 140.823H422.462C432.661 140.823 440.877 132.61 440.877 122.415V10.4082C440.877 0.212891 432.661 -8 422.462 -8H310.416C300.218 -8 292.002 0.212891 292.002 10.4082V122.415C291.86 132.61 300.218 140.823 310.416 140.823Z" fill="url(#paint5_linear_489_1111)"/>
<path d="M383.649 96.3603C383.224 96.3603 382.658 96.2188 382.233 95.9355C381.808 95.6523 381.525 95.2275 381.383 94.8027C381.241 94.3779 381.1 93.8115 381.241 93.3867C381.383 92.9619 381.525 92.3955 381.95 92.1123L409.288 64.7832L381.808 37.3125C381.383 36.8877 381.1 36.1797 381.1 35.6133C381.1 34.9053 381.383 34.3389 381.808 33.9141C382.233 33.4893 382.941 33.2061 383.508 33.2061C384.216 33.2061 384.783 33.4893 385.207 33.9141L414.388 63.084C414.813 63.5088 415.096 64.2168 415.096 64.7832C415.096 65.4912 414.813 66.0576 414.388 66.4824L385.207 95.6523C384.924 95.9355 384.641 96.0771 384.358 96.2187C384.216 96.3603 383.933 96.3603 383.649 96.3603Z" fill="#332238"/>
<path d="M349.087 97.21C348.804 97.21 348.379 97.21 348.096 97.0684C347.812 96.9268 347.529 96.7852 347.246 96.502L318.066 67.332C317.782 67.0488 317.641 66.7656 317.499 66.4824C317.357 66.1992 317.357 65.916 317.357 65.4912C317.357 65.208 317.357 64.7832 317.499 64.5C317.641 64.2168 317.782 63.9336 318.066 63.6504L347.246 34.4805C347.529 34.1973 347.812 34.0557 348.096 33.9141C348.379 33.7725 348.662 33.7725 349.087 33.7725C349.371 33.7725 349.795 33.7725 350.079 33.9141C350.362 34.0557 350.645 34.1973 350.929 34.4805C351.212 34.7637 351.354 35.0469 351.495 35.3301C351.637 35.6133 351.637 35.8965 351.637 36.3213C351.637 36.6045 351.637 37.0293 351.495 37.3125C351.354 37.5957 351.212 37.8789 350.929 38.1621L323.59 65.4912L350.929 92.8203C351.212 93.1035 351.495 93.6699 351.637 94.0947C351.779 94.5195 351.637 95.0859 351.495 95.5107C351.354 95.9355 350.929 96.3604 350.645 96.6436C350.079 97.0684 349.654 97.21 349.087 97.21Z" fill="#332238"/>
<path d="M359.002 105.705C358.861 105.705 358.719 105.705 358.577 105.705C357.869 105.564 357.302 105.139 357.019 104.714C356.594 104.148 356.452 103.44 356.594 102.873L371.326 25.8422C371.468 25.1342 371.892 24.5677 372.317 24.2845C372.884 23.8597 373.592 23.7181 374.159 23.8597C374.867 24.0013 375.434 24.4261 375.717 24.851C376.142 25.4174 376.284 26.1254 376.142 26.6918L361.41 103.723C361.269 104.289 360.985 104.856 360.56 105.139C360.135 105.564 359.569 105.705 359.002 105.705Z" fill="white"/>
<path d="M18.4146 451.823H130.461C140.659 451.823 148.875 443.61 148.875 433.415V321.408C148.875 311.213 140.659 303 130.461 303H18.4146C8.21576 303 0 311.213 0 321.408V433.415C0 443.61 8.21576 451.823 18.4146 451.823Z" fill="url(#paint6_linear_489_1111)"/>
<path d="M131.311 403.679V406.936C131.311 409.909 130.178 412.741 128.053 414.724C125.928 416.848 123.237 417.98 120.262 417.98H28.7558C27.3393 417.98 25.9228 417.697 24.5063 417.131C23.2314 416.564 21.9566 415.715 20.965 414.724C19.9734 413.732 19.1235 412.458 18.5569 411.184C17.9903 409.909 17.707 408.352 17.707 406.936V403.679H131.311Z" fill="white"/>
<path d="M131.311 347.746V403.679H17.707V347.746C17.707 344.772 18.8402 341.94 20.965 339.958C23.0898 337.834 25.9228 336.701 28.7558 336.701H120.121C123.095 336.701 125.928 337.834 127.912 339.958C130.036 342.082 131.17 344.914 131.311 347.746Z" fill="url(#paint7_linear_489_1111)"/>
<path d="M110.205 417.98H83.1499C80.7419 417.98 78.9004 415.998 78.9004 413.732V362.331C78.9004 359.924 80.8835 358.083 83.1499 358.083H110.205C112.613 358.083 114.455 360.065 114.455 362.331V413.732C114.596 415.998 112.613 417.98 110.205 417.98Z" fill="url(#paint8_linear_489_1111)"/>
<path d="M96.7497 411.042C97.7667 411.042 98.5911 410.218 98.5911 409.201C98.5911 408.185 97.7667 407.36 96.7497 407.36C95.7327 407.36 94.9082 408.185 94.9082 409.201C94.9082 410.218 95.7327 411.042 96.7497 411.042Z" fill="white"/>
<path d="M318.562 424.177H414.311C423.026 424.177 430.047 417.158 430.047 408.446V312.731C430.047 304.018 423.026 297 414.311 297H318.562C309.847 297 302.826 304.018 302.826 312.731V408.446C302.705 417.158 309.847 424.177 318.562 424.177Z" fill="url(#paint9_linear_489_1111)"/>
<path d="M343.501 318.297V402.88H322.438C320.259 402.88 318.202 402.033 316.749 400.46C315.297 399.008 314.328 396.95 314.328 394.772V324.468C314.328 322.774 314.933 321.322 316.144 320.112C317.354 318.902 318.928 318.297 320.502 318.297H343.501Z" fill="url(#paint10_linear_489_1111)"/>
<path d="M343.5 402.759H411.529C412.376 402.759 413.344 402.638 414.071 402.275C414.918 401.912 415.644 401.428 416.25 400.823C416.855 400.218 417.339 399.492 417.702 398.645C418.065 397.798 418.186 396.951 418.186 396.104V335.843H343.379V402.759H343.5Z" fill="url(#paint11_linear_489_1111)"/>
<path d="M417.701 322.895C417.338 322.048 416.733 321.201 416.127 320.475C415.401 319.749 414.675 319.265 413.706 318.902C412.859 318.539 411.891 318.297 410.922 318.297H320.621C318.926 318.297 317.473 318.902 316.263 320.112C315.053 321.322 314.447 322.895 314.447 324.468V335.843H343.499H418.306V325.678C418.306 324.71 418.064 323.742 417.701 322.895Z" fill="url(#paint12_linear_489_1111)"/>
<path d="M391.436 350H357.301V356.655H391.436V350Z" fill="white"/>
<path d="M377.032 365.852H357.301V372.507H377.032V365.852Z" fill="white"/>
<path d="M377.032 381.824H357.301V388.48H377.032V381.824Z" fill="white"/>
<path d="M78.9006 188.472C85.4721 188.472 90.7993 183.146 90.7993 176.577C90.7993 170.008 85.4721 164.683 78.9006 164.683C72.3292 164.683 67.002 170.008 67.002 176.577C67.002 183.146 72.3292 188.472 78.9006 188.472Z" fill="white"/>
<path d="M98.5907 206.738C101.485 206.738 103.832 204.393 103.832 201.499C103.832 198.605 101.485 196.26 98.5907 196.26C95.6961 196.26 93.3496 198.605 93.3496 201.499C93.3496 204.393 95.6961 206.738 98.5907 206.738Z" fill="#332238"/>
<path d="M78.9006 271.733C85.4721 271.733 90.7993 266.408 90.7993 259.839C90.7993 253.27 85.4721 247.944 78.9006 247.944C72.3292 247.944 67.002 253.27 67.002 259.839C67.002 266.408 72.3292 271.733 78.9006 271.733Z" fill="white"/>
<path d="M98.5907 236.899C101.485 236.899 103.832 234.554 103.832 231.66C103.832 228.767 101.485 226.421 98.5907 226.421C95.6961 226.421 93.3496 228.767 93.3496 231.66C93.3496 234.554 95.6961 236.899 98.5907 236.899Z" fill="#332238"/>
<path d="M366.451 188.472C373.023 188.472 378.35 183.146 378.35 176.577C378.35 170.008 373.023 164.683 366.451 164.683C359.88 164.683 354.553 170.008 354.553 176.577C354.553 183.146 359.88 188.472 366.451 188.472Z" fill="white"/>
<path d="M346.903 206.738C349.798 206.738 352.144 204.393 352.144 201.499C352.144 198.605 349.798 196.26 346.903 196.26C344.009 196.26 341.662 198.605 341.662 201.499C341.662 204.393 344.009 206.738 346.903 206.738Z" fill="#332238"/>
<path d="M366.451 271.733C373.023 271.733 378.35 266.408 378.35 259.839C378.35 253.27 373.023 247.944 366.451 247.944C359.88 247.944 354.553 253.27 354.553 259.839C354.553 266.408 359.88 271.733 366.451 271.733Z" fill="white"/>
<path d="M346.903 236.899C349.798 236.899 352.144 234.554 352.144 231.66C352.144 228.767 349.798 226.421 346.903 226.421C344.009 226.421 341.662 228.767 341.662 231.66C341.662 234.554 344.009 236.899 346.903 236.899Z" fill="#332238"/>
<path d="M307.95 209.287C300.867 208.296 294.493 205.039 289.393 200.083C284.436 195.127 281.178 188.613 280.186 181.533L277.211 159.868H276.22L255.397 157.036C248.314 156.045 241.94 152.788 236.841 147.832C231.883 142.876 228.625 136.362 227.633 129.282L224.8 107.617H218.993L216.018 129.282C215.026 136.362 211.769 142.734 206.811 147.832C201.853 152.788 195.337 156.045 188.254 157.036L167.29 159.868H166.44L163.466 181.533C162.474 188.613 159.216 194.985 154.258 200.083C149.3 205.039 142.784 208.296 135.702 209.287L114.029 212.261V218.066L135.702 221.04C142.784 222.031 149.159 225.288 154.258 230.244C159.216 235.2 162.474 241.714 163.466 248.794L166.44 270.459H166.865L187.971 273.433C195.054 274.424 201.428 277.681 206.527 282.637C211.485 287.593 214.743 294.106 215.735 301.187L218.709 322.852H224.659L227.633 301.187C228.625 294.106 231.883 287.734 236.841 282.637C241.799 277.681 248.314 274.424 255.397 273.433L276.503 270.459H277.07L280.044 248.794C281.036 241.714 284.294 235.342 289.252 230.244C294.209 225.288 300.725 222.031 307.808 221.04L329.481 218.066V212.261L307.95 209.287ZM255.539 168.789L270.412 166.665L268.287 181.392C267.296 188.472 264.038 194.844 259.08 199.941C254.122 204.897 247.606 208.154 240.524 209.146L225.65 211.27L227.775 196.543C228.767 189.463 232.025 182.949 236.982 177.993C241.94 173.037 248.456 169.78 255.539 168.789ZM215.876 196.543L218.001 211.411L203.128 209.287C196.045 208.296 189.671 205.039 184.572 200.083C179.614 195.127 176.356 188.613 175.364 181.533L173.239 166.807L188.113 168.931C195.054 169.922 201.57 173.179 206.669 178.135C211.627 182.949 214.885 189.463 215.876 196.543ZM188.113 261.538L173.239 263.662L175.364 248.794C176.356 241.714 179.614 235.342 184.572 230.244C189.529 225.288 196.045 222.031 203.128 221.04L218.001 218.916L215.876 233.643C214.885 240.723 211.627 247.236 206.669 252.192C201.57 257.29 195.054 260.547 188.113 261.538ZM227.775 233.784L225.65 219.058L240.524 221.182C247.606 222.173 253.981 225.43 259.08 230.386C264.038 235.342 267.296 241.855 268.287 248.936L270.412 263.804L255.539 261.68C248.456 260.688 241.94 257.432 236.982 252.334C231.883 247.236 228.767 240.723 227.775 233.784Z" fill="white"/>
<path d="M184.571 308.408C187.779 308.408 190.379 305.809 190.379 302.603C190.379 299.396 187.779 296.797 184.571 296.797C181.364 296.797 178.764 299.396 178.764 302.603C178.764 305.809 181.364 308.408 184.571 308.408Z" fill="white"/>
<path d="M256.814 308.408C260.021 308.408 262.621 305.809 262.621 302.603C262.621 299.396 260.021 296.797 256.814 296.797C253.606 296.797 251.006 299.396 251.006 302.603C251.006 305.809 253.606 308.408 256.814 308.408Z" fill="white"/>
<path d="M184.571 132.397C187.779 132.397 190.379 129.798 190.379 126.592C190.379 123.385 187.779 120.786 184.571 120.786C181.364 120.786 178.764 123.385 178.764 126.592C178.764 129.798 181.364 132.397 184.571 132.397Z" fill="white"/>
<path d="M142.218 185.356C145.425 185.356 148.026 182.757 148.026 179.551C148.026 176.344 145.425 173.745 142.218 173.745C139.01 173.745 136.41 176.344 136.41 179.551C136.41 182.757 139.01 185.356 142.218 185.356Z" fill="white"/>
<path d="M142.218 253.75C145.425 253.75 148.026 251.151 148.026 247.944C148.026 244.738 145.425 242.139 142.218 242.139C139.01 242.139 136.41 244.738 136.41 247.944C136.41 251.151 139.01 253.75 142.218 253.75Z" fill="white"/>
<path d="M303.983 185.356C307.191 185.356 309.791 182.757 309.791 179.551C309.791 176.344 307.191 173.745 303.983 173.745C300.776 173.745 298.176 176.344 298.176 179.551C298.176 182.757 300.776 185.356 303.983 185.356Z" fill="white"/>
<path d="M303.983 253.75C307.191 253.75 309.791 251.151 309.791 247.944C309.791 244.738 307.191 242.139 303.983 242.139C300.776 242.139 298.176 244.738 298.176 247.944C298.176 251.151 300.776 253.75 303.983 253.75Z" fill="white"/>
<path d="M256.814 132.397C260.021 132.397 262.621 129.798 262.621 126.592C262.621 123.385 260.021 120.786 256.814 120.786C253.606 120.786 251.006 123.385 251.006 126.592C251.006 129.798 253.606 132.397 256.814 132.397Z" fill="white"/>
<defs>
<linearGradient id="paint0_linear_489_1111" x1="148.187" y1="160.941" x2="74.0384" y2="63.3127" gradientUnits="userSpaceOnUse">
<stop stop-color="white" stop-opacity="0"/>
<stop offset="1" stop-color="white"/>
</linearGradient>
<linearGradient id="paint1_linear_489_1111" x1="21.9674" y1="74.3937" x2="40.5185" y2="59.0766" gradientUnits="userSpaceOnUse">
<stop stop-color="white" stop-opacity="0"/>
<stop offset="0.0298052" stop-color="#FFFCFA" stop-opacity="0.0298052"/>
<stop offset="0.5004" stop-color="#FFD6AB" stop-opacity="0.5004"/>
<stop offset="0.835" stop-color="#FFBE7A" stop-opacity="0.835"/>
<stop offset="1" stop-color="#FFB567"/>
</linearGradient>
<linearGradient id="paint2_linear_489_1111" x1="137.176" y1="75.8822" x2="119.629" y2="59.3995" gradientUnits="userSpaceOnUse">
<stop stop-color="white" stop-opacity="0"/>
<stop offset="0.0298052" stop-color="#FFFCFA" stop-opacity="0.0298052"/>
<stop offset="0.5004" stop-color="#FFD6AB" stop-opacity="0.5004"/>
<stop offset="0.835" stop-color="#FFBE7A" stop-opacity="0.835"/>
<stop offset="1" stop-color="#FFB567"/>
</linearGradient>
<linearGradient id="paint3_linear_489_1111" x1="52.1613" y1="56.2447" x2="109.388" y2="134.896" gradientUnits="userSpaceOnUse">
<stop offset="0.2246" stop-color="white" stop-opacity="0"/>
<stop offset="0.2996" stop-color="#FCF6F8" stop-opacity="0.1729"/>
<stop offset="0.5186" stop-color="#F4DFE6" stop-opacity="0.6782"/>
<stop offset="0.658" stop-color="#F1D7E0"/>
</linearGradient>
<linearGradient id="paint4_linear_489_1111" x1="48.7056" y1="-7.48593" x2="99.0379" y2="72.8514" gradientUnits="userSpaceOnUse">
<stop offset="0.151" stop-color="white" stop-opacity="0"/>
<stop offset="0.4656" stop-color="#F5E3EA" stop-opacity="0.6108"/>
<stop offset="0.666" stop-color="#F1D7E0"/>
</linearGradient>
<linearGradient id="paint5_linear_489_1111" x1="450.066" y1="176.588" x2="360.001" y2="58.0033" gradientUnits="userSpaceOnUse">
<stop stop-color="white" stop-opacity="0"/>
<stop offset="0.6006" stop-color="#F5E4EA" stop-opacity="0.6006"/>
<stop offset="1" stop-color="#F1D7E0"/>
</linearGradient>
<linearGradient id="paint6_linear_489_1111" x1="158.183" y1="487.507" x2="68.1181" y2="368.922" gradientUnits="userSpaceOnUse">
<stop stop-color="white" stop-opacity="0"/>
<stop offset="0.6006" stop-color="#F5E4EA" stop-opacity="0.6006"/>
<stop offset="1" stop-color="#F1D7E0"/>
</linearGradient>
<linearGradient id="paint7_linear_489_1111" x1="117.311" y1="431.753" x2="59.2512" y2="353.351" gradientUnits="userSpaceOnUse">
<stop stop-color="#EBB36B"/>
<stop offset="0.0210981" stop-color="#E0AB68"/>
<stop offset="0.1341" stop-color="#AC815A"/>
<stop offset="0.245" stop-color="#815F4E"/>
<stop offset="0.3515" stop-color="#5F4544"/>
<stop offset="0.4524" stop-color="#47313D"/>
<stop offset="0.5454" stop-color="#382639"/>
<stop offset="0.6231" stop-color="#332238"/>
</linearGradient>
<linearGradient id="paint8_linear_489_1111" x1="121.11" y1="355.052" x2="88.353" y2="399.287" gradientUnits="userSpaceOnUse">
<stop stop-color="white" stop-opacity="0"/>
<stop offset="0.0298052" stop-color="#FFFCFA" stop-opacity="0.0298052"/>
<stop offset="0.5004" stop-color="#FFD6AB" stop-opacity="0.5004"/>
<stop offset="0.835" stop-color="#FFBE7A" stop-opacity="0.835"/>
<stop offset="1" stop-color="#FFB567"/>
</linearGradient>
<linearGradient id="paint9_linear_489_1111" x1="437.899" y1="454.67" x2="360.934" y2="353.334" gradientUnits="userSpaceOnUse">
<stop stop-color="white" stop-opacity="0"/>
<stop offset="1" stop-color="white"/>
</linearGradient>
<linearGradient id="paint10_linear_489_1111" x1="294.337" y1="446.11" x2="338.237" y2="340.681" gradientUnits="userSpaceOnUse">
<stop offset="0.1237" stop-color="white" stop-opacity="0"/>
<stop offset="0.79" stop-color="#C2D0E8"/>
</linearGradient>
<linearGradient id="paint11_linear_489_1111" x1="413.131" y1="410.081" x2="366.777" y2="351.383" gradientUnits="userSpaceOnUse">
<stop stop-color="#EBB36B"/>
<stop offset="0.0321525" stop-color="#CE9C63"/>
<stop offset="0.0804594" stop-color="#AA8059"/>
<stop offset="0.1348" stop-color="#8A6650"/>
<stop offset="0.1949" stop-color="#6E5148"/>
<stop offset="0.2628" stop-color="#583F42"/>
<stop offset="0.3421" stop-color="#47323E"/>
<stop offset="0.4402" stop-color="#3C293A"/>
<stop offset="0.5777" stop-color="#352339"/>
<stop offset="0.9594" stop-color="#332238"/>
</linearGradient>
<linearGradient id="paint12_linear_489_1111" x1="418.965" y1="369.041" x2="336.409" y2="305.991" gradientUnits="userSpaceOnUse">
<stop stop-color="white" stop-opacity="0"/>
<stop offset="0.0991514" stop-color="#FBF5F7" stop-opacity="0.1139"/>
<stop offset="0.3204" stop-color="#F6E4EA" stop-opacity="0.3682"/>
<stop offset="0.564" stop-color="#F2DAE2" stop-opacity="0.6481"/>
<stop offset="0.8703" stop-color="#F1D7E0"/>
</linearGradient>
</defs>
</svg>
