<svg width="43" height="43" viewBox="0 0 566 566" fill="none" xmlns="http://www.w3.org/2000/svg">
  <path
    d="M499.963 271.925C473.116 268.223 451.825 246.941 448.122 220.106L442.567 179.623H440.716L401.835 174.302C374.988 170.601 353.697 149.318 349.994 122.483L344.671 82H333.793L328.239 122.483C324.536 149.318 303.244 170.601 276.398 174.302L237.517 179.623H235.897L230.342 220.106C226.639 246.941 205.347 268.223 178.501 271.925L138 277.477V288.349L178.501 293.901C205.347 297.603 226.639 318.885 230.342 345.72L235.897 386.203H236.822L276.166 391.755C303.012 395.457 324.304 416.739 328.007 443.574L333.562 484.057H344.439L349.994 443.574C353.697 416.739 374.988 395.457 401.835 391.755L441.179 386.203H442.336L447.89 345.72C451.593 318.885 472.885 297.603 499.731 293.901L540.232 288.349V277.477L499.963 271.925ZM402.066 196.51L429.838 192.577L425.904 220.106C422.201 246.941 400.909 268.223 374.063 271.925L346.291 275.857L350.225 248.329C353.928 221.263 375.22 200.211 402.066 196.51ZM328.007 248.097L331.942 275.626L304.17 271.693C277.323 267.992 256.031 246.709 252.328 219.875L248.394 192.346L276.166 196.279C303.012 200.211 324.304 221.263 328.007 248.097ZM276.166 369.547L248.394 373.48L252.328 345.951C256.031 319.117 277.323 297.834 304.17 294.133L331.942 290.2L328.007 317.729C324.304 344.563 303.012 365.846 276.166 369.547ZM350.225 317.729L346.291 290.2L374.063 294.133C400.909 297.834 422.201 319.117 425.904 345.951L429.838 373.48L402.066 369.547C375.22 365.846 353.928 344.563 350.225 317.729Z"
    fill="#FFB567" />
</svg>
