<svg width="1401" height="1080" viewBox="0 0 1401 1080" fill="none" xmlns="http://www.w3.org/2000/svg">
<path d="M905.765 312.671C871.753 307.981 844.777 281.011 840.086 247.007L833.049 195.707H830.703L781.443 188.964C747.43 184.274 720.455 157.305 715.763 123.3L709.019 72H695.238L688.201 123.3C683.51 157.305 656.534 184.274 622.521 188.964L573.261 195.707H571.209L564.172 247.007C559.48 281.011 532.505 307.981 498.492 312.671L447.18 319.706V333.484L498.492 340.52C532.505 345.21 559.48 372.179 564.172 406.184L571.209 457.484H572.382L622.228 464.519C656.241 469.21 683.217 496.179 687.908 530.184L694.945 581.484H708.726L715.763 530.184C720.455 496.179 747.43 469.21 781.443 464.519L831.289 457.484H832.755L839.792 406.184C844.484 372.179 871.459 345.21 905.472 340.52L956.785 333.484V319.706L905.765 312.671ZM781.736 217.106L816.922 212.123L811.937 247.007C807.246 281.011 780.27 307.981 746.257 312.671L711.072 317.654L716.056 282.77C720.748 248.472 747.723 221.796 781.736 217.106ZM687.908 282.477L692.893 317.361L657.707 312.378C623.694 307.687 596.719 280.718 592.027 246.714L587.042 211.83L622.228 216.813C656.241 221.796 683.217 248.472 687.908 282.477ZM622.228 436.378L587.042 441.361L592.027 406.477C596.719 372.472 623.694 345.503 657.707 340.813L692.893 335.829L687.908 370.713C683.217 404.718 656.241 431.687 622.228 436.378ZM716.056 370.713L711.072 335.829L746.257 340.813C780.27 345.503 807.246 372.472 811.937 406.477L816.922 441.361L781.736 436.378C747.723 431.687 720.748 404.718 716.056 370.713Z" fill="#351D36"/>
<path d="M382.344 667.768C425.104 667.768 463.316 686.869 473.778 730.074H568.397C558.844 640.935 483.331 583.177 384.618 583.177C257.246 583.177 174 672.771 174 796.929C174 923.36 254.972 1007.95 370.061 1007.95C419.19 1007.95 463.77 990.669 486.06 964.746L491.064 1002.04H568.397V765.548H374.61V844.682H483.786C479.692 887.432 449.669 924.27 381.889 924.27C316.383 924.27 269.529 882.884 269.529 800.112C269.074 720.069 307.74 667.768 382.344 667.768Z" fill="#351D36"/>
<path d="M812.679 723.253C800.852 720.524 789.934 719.159 779.927 719.159C742.625 719.159 718.06 737.351 706.233 764.638L701.684 723.253H621.167V1001.13H707.143V880.155C707.143 825.126 736.711 803.296 785.84 803.296H813.134V723.253H812.679Z" fill="#351D36"/>
<path d="M918.214 1008.86C960.065 1008.86 996.912 990.669 1005.55 964.746L1011.01 1001.58H1086.53V839.224C1086.53 759.636 1041.04 714.611 960.065 714.611C880.458 714.611 828.599 755.997 828.599 818.758H900.018C900.018 793.745 919.579 779.646 955.516 779.646C985.994 779.646 1002.83 794.2 1002.83 821.487V826.035L925.038 831.947C858.167 836.95 822.23 868.785 822.23 919.722C822.23 974.297 859.077 1008.86 918.214 1008.86ZM948.237 945.645C921.853 945.645 910.026 936.094 910.026 916.084C910.026 898.347 923.218 889.706 960.52 886.522L1003.74 882.429V897.437C1003.74 929.272 980.99 945.645 948.237 945.645Z" fill="#351D36"/>
<path d="M1179.33 680.047C1206.17 680.047 1228 658.217 1228 630.93C1228 603.643 1206.17 582.267 1179.33 582.267C1152.03 582.267 1130.2 603.643 1130.2 630.93C1130.65 658.217 1152.03 680.047 1179.33 680.047ZM1137.02 1001.58H1223V723.253H1137.02V1001.58Z" fill="#351D36"/>
</svg>
