<svg width="92" height="101" viewBox="0 0 92 101" fill="none" xmlns="http://www.w3.org/2000/svg">
<path d="M91.5659 8.68971V33.1303C91.5659 34.2898 91.3375 35.438 90.8937 36.5092C90.4499 37.5804 89.7994 38.5537 88.9794 39.3736C88.1594 40.1933 87.1859 40.8436 86.1146 41.2871C85.0432 41.7306 83.895 41.9588 82.7355 41.9585H-18.1609C-19.3211 41.9599 -20.4703 41.7326 -21.5426 41.2896C-22.615 40.8466 -23.5895 40.1966 -24.4104 39.3767C-25.2313 38.5567 -25.8826 37.5831 -26.327 36.5113C-26.7713 35.4395 -27 34.2906 -27 33.1303V8.68971C-27 6.38505 -26.0845 4.17479 -24.4548 2.54515C-22.8252 0.915519 -20.6149 0 -18.3103 0H82.885C85.1881 0.00232992 87.3961 0.918883 89.0238 2.54827C90.6516 4.17765 91.5659 6.38658 91.5659 8.68971Z" fill="#F1D7E0"/>
<path d="M91.5659 8.6897V20.9836H-27V8.6897C-27 6.38505 -26.0845 4.17479 -24.4548 2.54515C-22.8252 0.915519 -20.6149 0 -18.3103 0H82.885C85.1881 0.00232992 87.3961 0.918883 89.0238 2.54827C90.6516 4.17765 91.5659 6.38657 91.5659 8.6897Z" fill="url(#paint0_linear_602_24)"/>
<path d="M82.6376 83.2469V93.4799C82.6381 94.3711 82.463 95.2537 82.1224 96.0773C81.7819 96.9009 81.2823 97.6493 80.6525 98.2798C80.0227 98.9104 79.2748 99.4107 78.4516 99.7522C77.6285 100.094 76.746 100.27 75.8548 100.27H27.7319C26.8405 100.27 25.9578 100.095 25.1343 99.7535C24.3108 99.4123 23.5627 98.9122 22.9324 98.2818C22.3022 97.6514 21.8023 96.9031 21.4614 96.0795C21.1204 95.2559 20.9451 94.3732 20.9453 93.4818V66.2559H28.9205C35.7782 66.2562 42.4883 68.2477 48.2359 71.9885L56.7275 77.5142C62.4748 81.2556 69.1851 83.2471 76.0428 83.2469H82.6376Z" fill="#F1D7E0"/>
<path d="M82.6431 40.7865V83.2471H76.037C69.1792 83.2473 62.4691 81.2557 56.7218 77.5144L48.23 71.9887C42.4825 68.2479 35.7724 66.2564 28.9147 66.256H20.9395V40.7865C20.9395 38.9866 21.6545 37.2605 22.9272 35.9877C24.2 34.715 25.9261 34 27.726 34H75.849C76.7409 33.999 77.6241 34.1738 78.4484 34.5144C79.2726 34.855 80.0218 35.3548 80.6528 35.9851C81.2838 36.6153 81.7842 37.3638 82.1258 38.1877C82.4673 39.0116 82.6431 39.8947 82.6431 40.7865Z" fill="url(#paint1_linear_602_24)"/>
<path d="M82.6417 44.8515H20.9494C20.6976 44.8515 20.4562 44.7515 20.2782 44.5734C20.1001 44.3954 20 44.1539 20 43.9021C20 43.6503 20.1001 43.4088 20.2782 43.2307C20.4562 43.0527 20.6976 42.9526 20.9494 42.9526H82.6417C82.8935 42.9526 83.135 43.0527 83.3131 43.2307C83.4911 43.4088 83.5912 43.6503 83.5912 43.9021C83.5912 44.1539 83.4911 44.3954 83.3131 44.5734C83.135 44.7515 82.8935 44.8515 82.6417 44.8515Z" fill="#351D36"/>
<path d="M27.6366 40.1384C28.4315 40.1384 29.0759 39.494 29.0759 38.6991C29.0759 37.9042 28.4315 37.2598 27.6366 37.2598C26.8417 37.2598 26.1973 37.9042 26.1973 38.6991C26.1973 39.494 26.8417 40.1384 27.6366 40.1384Z" fill="#351D36"/>
<path d="M33.912 40.1384C34.7069 40.1384 35.3513 39.494 35.3513 38.6991C35.3513 37.9042 34.7069 37.2598 33.912 37.2598C33.1171 37.2598 32.4727 37.9042 32.4727 38.6991C32.4727 39.494 33.1171 40.1384 33.912 40.1384Z" fill="#351D36"/>
<path d="M40.705 40.1384C41.4999 40.1384 42.1443 39.494 42.1443 38.6991C42.1443 37.9042 41.4999 37.2598 40.705 37.2598C39.91 37.2598 39.2656 37.9042 39.2656 38.6991C39.2656 39.494 39.91 40.1384 40.705 40.1384Z" fill="white"/>
<defs>
<linearGradient id="paint0_linear_602_24" x1="-26.9912" y1="10.4896" x2="91.5659" y2="10.4896" gradientUnits="userSpaceOnUse">
<stop offset="0.46" stop-color="white"/>
<stop offset="0.58" stop-color="#FFE0BF"/>
<stop offset="0.67" stop-color="#FFC98F"/>
<stop offset="0.75" stop-color="#FFBA72"/>
<stop offset="0.79" stop-color="#FFB567"/>
</linearGradient>
<linearGradient id="paint1_linear_602_24" x1="51.4694" y1="20.4972" x2="52.0391" y2="77.6018" gradientUnits="userSpaceOnUse">
<stop offset="0.36" stop-color="white"/>
<stop offset="0.49" stop-color="#E7EEF7"/>
<stop offset="0.68" stop-color="#CADAEE"/>
<stop offset="0.79" stop-color="#BFD2EB"/>
</linearGradient>
</defs>
</svg>
