<svg width="99" height="94" viewBox="0 0 99 94" fill="none" xmlns="http://www.w3.org/2000/svg">
<path d="M37.3008 0H6.31568C2.88696 0 0.107422 2.77953 0.107422 6.20826V37.1933C0.107422 40.6221 2.88696 43.4016 6.31568 43.4016H37.3008C40.7295 43.4016 43.509 40.6221 43.509 37.1933V6.20826C43.509 2.77953 40.7295 0 37.3008 0Z" fill="url(#paint0_linear_500_486)"/>
<path d="M115.469 13.585H22.0589C18.2801 13.585 15.2168 16.6483 15.2168 20.4271V86.3333C15.2168 90.1121 18.2801 93.1754 22.0589 93.1754H115.469C119.248 93.1754 122.311 90.1121 122.311 86.3333V20.4271C122.311 16.6483 119.248 13.585 115.469 13.585Z" fill="#BFD2EB"/>
<path d="M48.8856 21.5186C42.8379 21.5192 37.0382 23.922 32.7618 28.1983C28.4854 32.4747 26.0827 38.2745 26.082 44.3222C26.082 50.3704 28.4845 56.1708 32.7609 60.4478C37.0374 64.7247 42.8375 67.1278 48.8856 67.1284C54.9342 67.1284 60.7351 64.7256 65.0121 60.4487C69.2891 56.1717 71.6918 50.3708 71.6918 44.3222C71.6912 38.2741 69.2881 32.4739 65.0112 28.1974C60.7343 23.921 54.9338 21.5186 48.8856 21.5186ZM48.8856 57.5745C45.3716 57.5745 42.0015 56.1786 39.5167 53.6938C37.0319 51.2089 35.6359 47.8388 35.6359 44.3248C35.6359 40.8107 37.0319 37.4406 39.5167 34.9558C42.0015 32.471 45.3716 31.075 48.8856 31.075C50.6258 31.0747 52.3491 31.4172 53.957 32.0829C55.5648 32.7486 57.0257 33.7245 58.2563 34.9549C59.4869 36.1853 60.4632 37.646 61.1292 39.2537C61.7952 40.8614 62.1379 42.5846 62.1379 44.3248C62.1376 46.0648 61.7946 47.7876 61.1284 49.395C60.4623 51.0024 59.486 52.4629 58.2554 53.693C57.0249 54.9231 55.564 55.8988 53.9564 56.5644C52.3487 57.2299 50.6256 57.5723 48.8856 57.572V57.5745Z" fill="url(#paint1_linear_500_486)"/>
<path d="M48.8825 31.0693V44.3216H35.6328C35.6325 42.5814 35.975 40.8582 36.6407 39.2504C37.3064 37.6426 38.2823 36.1816 39.5127 34.951C40.7431 33.7204 42.2038 32.7442 43.8115 32.0782C45.4192 31.4121 47.1423 31.0693 48.8825 31.0693Z" fill="#FFB567"/>
<path d="M106.634 39.9839H81.9826C81.4561 39.9839 81.0293 40.4107 81.0293 40.9372V43.6081C81.0293 44.1347 81.4561 44.5615 81.9826 44.5615H106.634C107.161 44.5615 107.588 44.1347 107.588 43.6081V40.9372C107.588 40.4107 107.161 39.9839 106.634 39.9839Z" fill="white"/>
<path d="M106.634 53.3789H81.9826C81.4561 53.3789 81.0293 53.8057 81.0293 54.3323V57.0032C81.0293 57.5297 81.4561 57.9565 81.9826 57.9565H106.634C107.161 57.9565 107.588 57.5297 107.588 57.0032V54.3323C107.588 53.8057 107.161 53.3789 106.634 53.3789Z" fill="white"/>
<path d="M93.3588 70.2715H68.7072C68.1807 70.2715 67.7539 70.6983 67.7539 71.2248V73.8957C67.7539 74.4223 68.1807 74.8491 68.7072 74.8491H93.3588C93.8853 74.8491 94.3122 74.4223 94.3122 73.8957V71.2248C94.3122 70.6983 93.8853 70.2715 93.3588 70.2715Z" fill="#F1D7E0"/>
<path d="M61.2084 77.9951H36.5569C36.0303 77.9951 35.6035 78.4219 35.6035 78.9485V81.6194C35.6035 82.1459 36.0303 82.5727 36.5569 82.5727H61.2084C61.735 82.5727 62.1618 82.1459 62.1618 81.6194V78.9485C62.1618 78.4219 61.735 77.9951 61.2084 77.9951Z" fill="#BFD2EB"/>
<defs>
<linearGradient id="paint0_linear_500_486" x1="-20.9455" y1="-7.86703" x2="12.6057" y2="15.3379" gradientUnits="userSpaceOnUse">
<stop offset="0.31" stop-color="white"/>
<stop offset="0.49" stop-color="#BEB6BE"/>
<stop offset="0.67" stop-color="#837584"/>
<stop offset="0.82" stop-color="#59455A"/>
<stop offset="0.93" stop-color="#3F2840"/>
<stop offset="1" stop-color="#351D36"/>
</linearGradient>
<linearGradient id="paint1_linear_500_486" x1="74.9327" y1="67.9565" x2="43.7585" y2="39.668" gradientUnits="userSpaceOnUse">
<stop offset="0.06" stop-color="white"/>
<stop offset="0.25" stop-color="#BEB6BE"/>
<stop offset="0.43" stop-color="#837584"/>
<stop offset="0.59" stop-color="#59455A"/>
<stop offset="0.71" stop-color="#3F2840"/>
<stop offset="0.78" stop-color="#351D36"/>
</linearGradient>
</defs>
</svg>
