<svg width="92" height="91" viewBox="0 0 92 91" fill="none" xmlns="http://www.w3.org/2000/svg">
<path d="M52.1226 31.127H7.36667C3.29817 31.127 0 34.4251 0 38.4936V83.2496C0 87.3181 3.29817 90.6162 7.36667 90.6162H52.1226C56.1911 90.6162 59.4893 87.3181 59.4893 83.2496V38.4936C59.4893 34.4251 56.1911 31.127 52.1226 31.127Z" fill="white"/>
<path d="M49.5688 60.8729C49.5667 66.1296 47.4772 71.1704 43.7597 74.8871C40.0423 78.6038 35.001 80.6922 29.7443 80.6933C24.4865 80.6933 19.4441 78.6047 15.7263 74.8869C12.0085 71.1691 9.91992 66.1266 9.91992 60.8689C9.91992 58.2655 10.4328 55.6876 11.429 53.2824C12.4253 50.8772 13.8854 48.6918 15.7263 46.8509C17.5672 45.01 19.7525 43.5498 22.1578 42.5535C24.563 41.5572 27.1409 41.0444 29.7443 41.0444V60.8689L49.5688 60.8729Z" fill="#F1D7E0"/>
<path d="M49.5667 60.8728H29.7422V41.0483C35 41.0483 40.0424 43.137 43.7602 46.8548C47.478 50.5726 49.5667 55.615 49.5667 60.8728Z" fill="#BFD2EB"/>
<path d="M29.7415 67.8082C33.5737 67.8082 36.6802 64.7016 36.6802 60.8694C36.6802 57.0372 33.5737 53.9307 29.7415 53.9307C25.9093 53.9307 22.8027 57.0372 22.8027 60.8694C22.8027 64.7016 25.9093 67.8082 29.7415 67.8082Z" fill="#FFB567"/>
<g clip-path="url(#clip0_515_3)">
<path d="M55.7092 72.6323C35.6745 72.6323 19.3672 56.3249 19.3672 36.2902C19.3672 16.3073 35.6745 0 55.7092 0C75.7439 0 92.0512 16.3073 92.0512 36.2902C91.9994 56.3249 75.6921 72.6323 55.7092 72.6323ZM55.7092 1.81192C36.6581 1.81192 21.1791 17.2909 21.1791 36.2902C21.1791 55.3413 36.6581 70.8203 55.7092 70.8203C74.7603 70.8203 90.2393 55.3413 90.2393 36.2902C90.1875 17.2909 74.7085 1.81192 55.7092 1.81192ZM55.7092 59.1723C51.2053 59.1723 46.7531 57.8263 43.0257 55.3413C39.2466 52.8046 36.2957 49.2326 34.5873 45.0392C32.8272 40.8977 32.3613 36.2902 33.2413 31.8381C34.1214 27.3859 36.2957 23.3479 39.5054 20.1382C42.7151 16.9285 46.7531 14.7542 51.2053 13.8742C55.6574 12.9941 60.2649 13.46 64.4064 15.2202C68.5997 16.9285 72.1718 19.8794 74.6567 23.6585C77.1934 27.4377 78.4877 31.8381 78.4877 36.342C78.4877 42.399 76.0545 48.1972 71.8094 52.494C67.5644 56.7391 61.7662 59.1723 55.7092 59.1723ZM55.7092 15.2719C51.5677 15.2719 47.4779 16.5144 44.0093 18.7922C40.5408 21.1219 37.8488 24.3833 36.244 28.2142C34.6391 32.0452 34.225 36.2902 35.0533 40.38C35.8816 44.4698 37.8488 48.1972 40.7997 51.148C43.7505 54.0989 47.4779 56.1179 51.5677 56.8944C55.6574 57.7227 59.9025 57.3086 63.7334 55.7037C67.5644 54.0989 70.8776 51.4069 73.1554 47.9383C75.4851 44.4698 76.6757 40.4318 76.6757 36.2385C76.6757 30.6474 74.4497 25.3152 70.5152 21.3807C66.6325 17.498 61.2485 15.2719 55.7092 15.2719Z" fill="url(#paint0_linear_515_3)"/>
</g>
<defs>
<linearGradient id="paint0_linear_515_3" x1="13.5045" y1="-5.05335" x2="74.862" y2="55.1127" gradientUnits="userSpaceOnUse">
<stop stop-color="white" stop-opacity="0"/>
<stop offset="1" stop-color="white"/>
</linearGradient>
<clipPath id="clip0_515_3">
<rect width="72.6323" height="72.6323" fill="white" transform="translate(19.3672)"/>
</clipPath>
</defs>
</svg>
