<svg width="136" height="78" viewBox="0 0 136 78" fill="none" xmlns="http://www.w3.org/2000/svg">
<path d="M129.322 0H86.396C82.7589 0 79.8105 2.9484 79.8105 6.58544V49.5115C79.8105 53.1485 82.7589 56.0969 86.396 56.0969H129.322C132.959 56.0969 135.907 53.1485 135.907 49.5115V6.58544C135.907 2.9484 132.959 0 129.322 0Z" fill="#BFD2EB"/>
<path d="M108.258 43.979C104.032 43.9761 99.9797 42.2961 96.9915 39.3078C94.0032 36.3196 92.3232 32.2675 92.3203 28.0415C92.3232 23.8155 94.0032 19.7634 96.9915 16.7752C99.9797 13.7869 104.032 12.1069 108.258 12.104C112.484 12.1073 116.536 13.7875 119.524 16.7756C122.512 19.7638 124.192 23.8156 124.195 28.0415C124.192 32.2675 122.512 36.3196 119.524 39.3078C116.536 42.2961 112.484 43.9761 108.258 43.979ZM108.258 13.6637C104.442 13.6662 100.783 15.1831 98.0852 17.8812C95.387 20.5794 93.8701 24.2381 93.8676 28.0539C93.8701 31.8696 95.387 35.5284 98.0852 38.2265C100.783 40.9247 104.442 42.4416 108.258 42.444C112.074 42.4416 115.732 40.9247 118.43 38.2265C121.129 35.5284 122.646 31.8696 122.648 28.0539C122.646 24.2381 121.129 20.5794 118.43 17.8812C115.732 15.1831 112.074 13.6662 108.258 13.6637Z" fill="#351D36"/>
<path d="M108.258 28.823C108.167 28.8231 108.076 28.8069 107.99 28.775C107.842 28.7203 107.714 28.6214 107.623 28.4916C107.533 28.3619 107.484 28.2075 107.484 28.0493V12.8855C107.484 12.6803 107.566 12.4835 107.711 12.3384C107.856 12.1933 108.053 12.1118 108.258 12.1118C108.463 12.1118 108.66 12.1933 108.805 12.3384C108.95 12.4835 109.032 12.6803 109.032 12.8855V25.9403L117.491 16.0126C117.624 15.8585 117.812 15.7629 118.014 15.7464C118.217 15.7298 118.418 15.7938 118.574 15.9244C118.728 16.0571 118.824 16.2452 118.84 16.4479C118.857 16.6506 118.793 16.8517 118.662 17.0076L108.846 28.546C108.774 28.6321 108.684 28.7014 108.583 28.7492C108.481 28.7971 108.37 28.8222 108.258 28.823Z" fill="#351D36"/>
<path d="M118.087 40.3658C117.975 40.3658 117.864 40.3415 117.762 40.2945C117.66 40.2475 117.57 40.1789 117.497 40.0935L107.904 28.8227H93.1037C92.8986 28.8227 92.7018 28.7412 92.5567 28.5961C92.4116 28.451 92.3301 28.2542 92.3301 28.0491C92.3301 27.8439 92.4116 27.6471 92.5567 27.502C92.7018 27.3569 92.8986 27.2754 93.1037 27.2754H108.268C108.379 27.2756 108.49 27.3 108.591 27.347C108.693 27.394 108.783 27.4625 108.856 27.5477L118.68 39.0908C118.745 39.1682 118.795 39.2578 118.827 39.3546C118.858 39.4513 118.87 39.5532 118.861 39.6545C118.853 39.7558 118.825 39.8545 118.779 39.945C118.733 40.0354 118.669 40.1159 118.591 40.1817C118.451 40.3013 118.272 40.3666 118.087 40.3658Z" fill="#351D36"/>
<path d="M59.9512 12.3623H5.13528C2.29914 12.3623 0 14.6614 0 17.4976V72.3135C0 75.1496 2.29914 77.4487 5.13528 77.4487H59.9512C62.7873 77.4487 65.0864 75.1496 65.0864 72.3135V17.4976C65.0864 14.6614 62.7873 12.3623 59.9512 12.3623Z" fill="#351D36"/>
<path d="M52.8963 54.3681H52.7467L49.5718 53.928C48.5027 53.7831 47.5107 53.2914 46.748 52.5283C45.9853 51.7652 45.494 50.7728 45.3496 49.7036L44.8986 46.4033H44.0009L43.5498 49.7036C43.4055 50.7728 42.9143 51.7652 42.1516 52.5283C41.3889 53.2914 40.3968 53.7831 39.3276 53.928L36.1528 54.3681H36.0273V55.4176H36.1791L39.3519 55.8576C40.4209 56.0029 41.4127 56.4947 42.1753 57.2578C42.938 58.0208 43.4294 59.0129 43.5741 60.082L44.0141 63.3823H44.914L45.354 60.082C45.4992 59.0127 45.991 58.0206 46.754 57.2576C47.517 56.4945 48.5092 56.0028 49.5785 55.8576L52.7511 55.4176H52.8765L52.8963 54.3681Z" fill="url(#paint0_linear_515_2)"/>
<path d="M28.6187 35.8864H28.4691L25.2964 35.4353C24.2269 35.2909 23.2343 34.7993 22.4712 34.0362C21.708 33.273 21.2165 32.2805 21.072 31.211L20.6319 27.9106H19.7189L19.2678 31.211C19.1235 32.2802 18.6323 33.2725 17.8696 34.0356C17.1068 34.7987 16.1148 35.2904 15.0457 35.4353L11.8774 35.8864H11.752V36.9359H11.9016L15.0742 37.3759C16.1432 37.5218 17.135 38.0138 17.8979 38.7767C18.6608 39.5396 19.1528 40.5313 19.2987 41.6003L19.7387 44.9006H20.6386L21.0896 41.6003C21.2343 40.5312 21.7257 39.5391 22.4883 38.7761C23.251 38.013 24.2428 37.5212 25.3118 37.3759L28.4845 36.9359H28.6099L28.6187 35.8864Z" fill="white"/>
<defs>
<linearGradient id="paint0_linear_515_2" x1="56.6542" y1="77.1292" x2="39.7567" y2="46.3153" gradientUnits="userSpaceOnUse">
<stop offset="0.46" stop-color="white"/>
<stop offset="0.58" stop-color="#FFE0BF"/>
<stop offset="0.67" stop-color="#FFC98F"/>
<stop offset="0.75" stop-color="#FFBA72"/>
<stop offset="0.79" stop-color="#FFB567"/>
</linearGradient>
</defs>
</svg>
