<svg width="145" height="44" viewBox="0 0 145 44" fill="none" xmlns="http://www.w3.org/2000/svg">
<path fill-rule="evenodd" clip-rule="evenodd" d="M90.069 34.4689C81.7109 40.6294 69.5963 43.9163 59.1659 43.9163C44.5408 43.9163 31.3744 38.507 21.4135 29.5103C20.6309 28.8029 21.3321 27.8387 22.2713 28.3897C33.021 34.6442 46.3126 38.4069 60.0424 38.4069C69.3021 38.4069 79.4883 36.4911 88.8544 32.5155C90.2694 31.9145 91.4527 33.4421 90.069 34.4689Z" fill="#FF9900"/>
<path fill-rule="evenodd" clip-rule="evenodd" d="M93.5464 30.4937C92.4821 29.1288 86.4843 29.8488 83.7922 30.1681C82.972 30.2683 82.8468 29.5545 83.5855 29.0412C88.3625 25.6791 96.201 26.6495 97.115 27.7765C98.0291 28.9097 96.8771 36.7669 92.3882 40.5171C91.6995 41.0931 91.0421 40.7863 91.3489 40.0225C92.3569 37.5057 94.617 31.8648 93.5464 30.4937Z" fill="#FF9900"/>
<path fill-rule="evenodd" clip-rule="evenodd" d="M83.9753 5.30645V2.03833C83.9753 1.54373 84.3509 1.21191 84.8017 1.21191H99.4331C99.9026 1.21191 100.278 1.55 100.278 2.03833V4.83689C100.272 5.30645 99.8776 5.92 99.1764 6.89042L91.5946 17.7153C94.4119 17.6464 97.3858 18.0659 99.9402 19.5059C100.516 19.8314 100.673 20.3072 100.717 20.7768V24.264C100.717 24.7399 100.191 25.2971 99.6397 25.0091C95.1382 22.6488 89.1592 22.3921 84.1819 25.0341C83.6747 25.3096 83.1426 24.7586 83.1426 24.2828V20.9709C83.1426 20.4387 83.1488 19.5309 83.681 18.7233L92.4648 6.12661H84.8205C84.3509 6.12661 83.9753 5.79479 83.9753 5.30645Z" fill="black"/>
<path fill-rule="evenodd" clip-rule="evenodd" d="M30.602 25.6973H26.1506C25.7249 25.666 25.3868 25.3467 25.3555 24.9397V2.09423C25.3555 1.6372 25.7374 1.27407 26.2132 1.27407H30.3641C30.7961 1.29284 31.1404 1.62467 31.1717 2.03788V5.02427H31.2531C32.3362 2.13806 34.371 0.791992 37.1132 0.791992C39.8992 0.791992 41.6397 2.13806 42.8919 5.02427C43.9687 2.13806 46.4167 0.791992 49.0399 0.791992C50.9056 0.791992 52.9466 1.56207 54.1925 3.29004C55.6012 5.21209 55.3132 8.00439 55.3132 10.4523L55.3069 24.8709C55.3069 25.3279 54.925 25.6973 54.4492 25.6973H50.0041C49.5596 25.666 49.2027 25.3091 49.2027 24.8709V12.7626C49.2027 11.7984 49.2904 9.39428 49.0775 8.48021C48.7457 6.94632 47.7502 6.51433 46.4605 6.51433C45.3836 6.51433 44.2567 7.23431 43.7997 8.3863C43.3426 9.53828 43.3865 11.4666 43.3865 12.7626V24.8709C43.3865 25.3279 43.0046 25.6973 42.5287 25.6973H38.0836C37.6328 25.666 37.2822 25.3091 37.2822 24.8709L37.276 12.7626C37.276 10.2144 37.6954 6.46424 34.5338 6.46424C31.3345 6.46424 31.4597 10.1205 31.4597 12.7626V24.8709C31.4597 25.3279 31.0778 25.6973 30.602 25.6973" fill="black"/>
<path fill-rule="evenodd" clip-rule="evenodd" d="M112.88 0.791992C119.486 0.791992 123.06 6.46424 123.06 13.6766C123.06 20.6449 119.11 26.1731 112.88 26.1731C106.394 26.1731 102.863 20.5009 102.863 13.4325C102.863 6.32024 106.438 0.791992 112.88 0.791992ZM112.918 5.45626C109.637 5.45626 109.431 9.92644 109.431 12.7125C109.431 15.5048 109.387 21.465 112.88 21.465C116.33 21.465 116.493 16.6568 116.493 13.7267C116.493 11.7984 116.412 9.49445 115.829 7.66631C115.328 6.07608 114.333 5.45626 112.918 5.45626Z" fill="black"/>
<path fill-rule="evenodd" clip-rule="evenodd" d="M131.623 25.6973H127.19C126.746 25.666 126.389 25.3091 126.389 24.8709L126.383 2.0191C126.42 1.59963 126.79 1.27407 127.241 1.27407H131.366C131.755 1.29284 132.074 1.55581 132.161 1.91267V5.40617H132.243C133.489 2.28205 135.236 0.791992 138.31 0.791992C140.307 0.791992 142.254 1.51198 143.506 3.48412C144.67 5.31226 144.67 8.3863 144.67 10.5963V24.9773C144.62 25.378 144.251 25.6973 143.813 25.6973H139.349C138.942 25.666 138.604 25.3655 138.56 24.9773V12.5685C138.56 10.0704 138.848 6.41415 135.774 6.41415C134.691 6.41415 133.695 7.14041 133.201 8.2423C132.575 9.63845 132.493 11.0283 132.493 12.5685V24.8709C132.487 25.3279 132.099 25.6973 131.623 25.6973" fill="black"/>
<path fill-rule="evenodd" clip-rule="evenodd" d="M72.3136 14.7852C72.3136 16.5194 72.3574 17.9656 71.4809 19.5058C70.7734 20.7579 69.6465 21.528 68.4006 21.528C66.6914 21.528 65.6897 20.2258 65.6897 18.3037C65.6897 14.5097 69.0893 13.821 72.3136 13.821V14.7852ZM76.8025 25.6351C76.5083 25.898 76.0825 25.9168 75.7507 25.7415C74.2732 24.5144 74.004 23.9447 73.1963 22.7739C70.7546 25.2657 69.0204 26.0107 65.8587 26.0107C62.1085 26.0107 59.1973 23.7005 59.1973 19.0738C59.1973 15.4613 61.1506 13.0009 63.9429 11.7988C66.3596 10.7345 69.7341 10.5466 72.3136 10.2524V9.67639C72.3136 8.61832 72.3949 7.36617 71.7689 6.4521C71.2304 5.63194 70.1912 5.29386 69.2708 5.29386C67.5742 5.29386 66.0653 6.1641 65.6959 7.9672C65.6208 8.36789 65.3266 8.76232 64.9196 8.7811L60.6059 8.3178C60.2428 8.23642 59.8359 7.94216 59.9423 7.38495C60.9315 2.15096 65.6646 0.573242 69.8969 0.573242C72.0631 0.573242 74.893 1.14923 76.6022 2.78955C78.7684 4.81178 78.5618 7.51016 78.5618 10.4465V17.3834C78.5618 19.4682 79.4258 20.3823 80.2397 21.5092C80.5214 21.9099 80.584 22.392 80.2209 22.6925C79.3131 23.4501 77.6978 24.8587 76.8088 25.6476L76.8025 25.635" fill="black"/>
<path fill-rule="evenodd" clip-rule="evenodd" d="M13.9581 14.7852C13.9581 16.5194 14.0019 17.9656 13.1254 19.5058C12.4179 20.7579 11.2973 21.528 10.0451 21.528C8.33592 21.528 7.34047 20.2258 7.34047 18.3037C7.34047 14.5097 10.7401 13.821 13.9581 13.821V14.7852ZM18.4471 25.6351C18.1528 25.898 17.7271 25.9168 17.3952 25.7415C15.9177 24.5144 15.6548 23.9447 14.8409 22.7739C12.3992 25.2657 10.6712 26.0107 7.50324 26.0107C3.75931 26.0107 0.841797 23.7005 0.841797 19.0738C0.841797 15.4613 2.80141 13.0009 5.58745 11.7988C8.0041 10.7345 11.3787 10.5466 13.9581 10.2524V9.67639C13.9581 8.61832 14.0395 7.36617 13.4197 6.4521C12.875 5.63194 11.8357 5.29386 10.9216 5.29386C9.22496 5.29386 7.70985 6.1641 7.34047 7.9672C7.26533 8.36789 6.97108 8.76232 6.57039 8.7811L2.25047 8.3178C1.88734 8.23642 1.48665 7.94216 1.58683 7.38495C2.58229 2.15096 7.30916 0.573242 11.5414 0.573242C13.7077 0.573242 16.5375 1.14923 18.2467 2.78955C20.4129 4.81178 20.2063 7.51016 20.2063 10.4465V17.3834C20.2063 19.4682 21.0703 20.3823 21.8842 21.5092C22.1722 21.9099 22.2348 22.392 21.8717 22.6925C20.9639 23.4501 19.3486 24.8587 18.4596 25.6476L18.4471 25.635" fill="black"/>
</svg>
