<svg width="131" height="50" viewBox="0 0 131 50" fill="none" xmlns="http://www.w3.org/2000/svg">
<path fill-rule="evenodd" clip-rule="evenodd" d="M68.5957 16.8763C67.5013 15.9559 65.6334 15.4962 62.991 15.4962H57.0312V33.9139H61.4876V28.1416H63.4839C65.9067 28.1416 67.6835 27.6083 68.8142 26.5408C70.0877 25.3449 70.7286 23.7525 70.7286 21.7645C70.7286 19.703 70.0173 18.0733 68.5957 16.8763ZM63.3731 23.974H61.4876V19.6637H63.1816C65.242 19.6637 66.2722 20.3864 66.2722 21.8318C66.2722 23.2586 65.3052 23.973 63.3731 23.973V23.974ZM78.3544 15.4951H73.7075V33.9129H83.7406V29.7444H78.3544V15.4951ZM92.8449 15.4951L85.5453 33.9129H90.5483L91.5051 31.2353H97.848L98.7229 33.9129H103.782L96.534 15.4951H92.8449ZM92.79 27.5068L94.7045 21.2116L96.5889 27.5068H92.789H92.79Z" fill="#111111"/>
<mask id="mask0_489_1666" style="mask-type:alpha" maskUnits="userSpaceOnUse" x="0" y="0" width="131" height="50">
<path d="M0 49.186H130.461V0.0322266H0V49.186Z" fill="white"/>
</mask>
<g mask="url(#mask0_489_1666)">
<path fill-rule="evenodd" clip-rule="evenodd" d="M106.101 33.9128H110.749V15.495H106.101V33.9128ZM128.794 18.947C128.207 18.0957 127.453 17.3726 126.578 16.8213C125.175 15.9371 123.261 15.496 120.837 15.496H114.714V33.9128H121.876C124.465 33.9128 126.542 33.0668 128.11 31.3729C129.677 29.68 130.46 27.4332 130.46 24.6345C130.46 22.4084 129.904 20.5125 128.793 18.947H128.794ZM121.357 29.7432H119.361V19.6645H121.385C122.806 19.6645 123.899 20.1098 124.665 20.9971C125.431 21.8844 125.814 23.1435 125.814 24.7732C125.814 28.0865 124.328 29.7432 121.357 29.7432ZM19.2968 0.0322266L4.23481 3.97712L0.0838678 19.1241L5.27539 24.4543L0 29.6966L3.90658 44.9098L18.9034 49.1001L24.1798 43.8568L29.3713 49.186L44.4334 45.2411L48.5833 30.0931L43.3928 24.7649L48.6682 19.5227L44.7616 4.30845L29.7627 0.118165L24.4884 5.36042L19.2968 0.0322266ZM10.0538 6.89075L17.9881 4.81166L21.4577 8.37345L16.3977 13.4014L10.0538 6.89075ZM27.4714 8.42108L30.9969 4.9183L38.8971 7.12579L32.4496 13.5318L27.4714 8.42108ZM4.83741 17.8805L7.02315 9.90274L13.365 16.4134L8.30602 21.4413L4.83741 17.8795V17.8805ZM35.4305 16.5935L41.878 10.1854L43.9343 18.1994L40.4098 21.7033L35.4305 16.5935ZM19.3797 16.462L24.4397 11.4341L29.4169 16.5449L24.3579 21.5728L19.3797 16.462ZM11.289 24.502L16.348 19.474L21.3283 24.5848L16.2672 29.6127L11.289 24.502ZM27.3409 24.6335L32.3999 19.6055L37.3781 24.7163L32.3181 29.7442L27.3409 24.6335ZM4.7318 31.0188L8.25839 27.5139L13.2356 32.6257L6.79019 39.0308L4.7318 31.0188ZM19.2492 32.6734L24.3092 27.6454L29.2875 32.7562L24.2285 37.7841L19.2492 32.6734ZM35.3001 32.8059L40.3601 27.778L43.8297 31.3387L41.645 39.3165L35.3001 32.8059ZM9.77112 42.0935L16.2175 35.6854L21.1978 40.7961L17.6713 44.301L9.77112 42.0925V42.0935ZM27.2104 40.8448L32.2694 35.8169L38.6123 42.3285L30.679 44.4066L27.2104 40.8448Z" fill="#111111"/>
</g>
</svg>
