<svg width="167" height="49" viewBox="0 0 167 49" fill="none" xmlns="http://www.w3.org/2000/svg">
<path d="M36.1111 9.50401C36.0787 9.26808 35.8726 9.13718 35.7015 9.12293C35.5318 9.10868 32.2058 9.05815 32.2058 9.05815C32.2058 9.05815 29.4242 6.35693 29.1494 6.08214C28.8747 5.80736 28.338 5.89031 28.1293 5.95252C28.1268 5.95382 27.607 6.11455 26.7321 6.38544C26.5856 5.91105 26.3704 5.32777 26.0632 4.74191C25.073 2.8521 23.6226 1.85276 21.8701 1.85017C21.8676 1.85017 21.8662 1.85017 21.8637 1.85017C21.7418 1.85017 21.6213 1.86184 21.4995 1.8722C21.4476 1.80999 21.3958 1.74907 21.3413 1.68944C20.5779 0.872861 19.5993 0.474939 18.4263 0.509935C16.1632 0.574743 13.9092 2.20921 12.0816 5.11261C10.7958 7.15536 9.81714 9.7218 9.53978 11.7088C6.94096 12.5137 5.12373 13.0762 5.08355 13.0892C3.77183 13.5014 3.73036 13.5415 3.55927 14.7781C3.43224 15.7126 0 42.2529 0 42.2529L28.7632 47.2276L41.2296 44.1284C41.2296 44.1284 36.1435 9.73995 36.1111 9.50401ZM25.292 6.83132C24.6297 7.03612 23.8766 7.26943 23.06 7.52218C23.0432 6.37637 22.9071 4.78209 22.3731 3.40427C24.0905 3.72961 24.9356 5.67256 25.292 6.83132ZM21.5552 7.9888C20.0478 8.45539 18.4029 8.96479 16.7529 9.47551C17.2169 7.69846 18.097 5.92919 19.1781 4.76913C19.5799 4.33751 20.1424 3.85663 20.8086 3.58184C21.4346 4.88837 21.5707 6.738 21.5552 7.9888ZM18.4716 2.01607C19.003 2.00441 19.4502 2.12107 19.8326 2.37252C19.2208 2.69008 18.6297 3.14633 18.075 3.74127C16.6375 5.28371 15.5358 7.67772 15.0964 9.98748C13.7263 10.4113 12.3861 10.8274 11.1522 11.2085C11.9312 7.57273 14.9784 2.11718 18.4716 2.01607Z" fill="#351D36"/>
<path d="M35.704 9.12462C35.5342 9.11037 32.2082 9.05983 32.2082 9.05983C32.2082 9.05983 29.4267 6.35861 29.1519 6.08382C29.0495 5.98142 28.9108 5.92828 28.7656 5.90625L28.7669 47.2267L41.2322 44.1288C41.2322 44.1288 36.146 9.74163 36.1136 9.5057C36.0812 9.26976 35.8738 9.13887 35.704 9.12462Z" fill="#9F94A0"/>
<path d="M21.8577 15.5336L20.4099 20.9503C20.4099 20.9503 18.7949 20.2154 16.8805 20.3359C14.0729 20.5135 14.0431 22.284 14.0717 22.7286C14.2246 25.1511 20.5978 25.68 20.9556 31.3546C21.2369 35.8186 18.5875 38.8723 14.7703 39.1134C10.1883 39.4024 7.66602 36.6999 7.66602 36.6999L8.63686 32.5704C8.63686 32.5704 11.176 34.4861 13.2084 34.3578C14.5357 34.2736 15.0101 33.1939 14.9621 32.4304C14.7625 29.2703 9.57266 29.457 9.24476 24.2646C8.96865 19.8952 11.8384 15.4675 18.1701 15.0683C20.6095 14.9115 21.8577 15.5336 21.8577 15.5336Z" fill="white"/>
<path d="M57.6461 26.8757C56.2126 26.0979 55.4759 25.4423 55.4759 24.5411C55.4759 23.3943 56.4992 22.6576 58.0973 22.6576C59.9575 22.6576 61.6185 23.4354 61.6185 23.4354L62.9285 19.4218C62.9285 19.4218 61.7239 18.4795 58.1783 18.4795C53.2441 18.4795 49.8245 21.3052 49.8245 25.2777C49.8245 27.53 51.4212 29.2502 53.5514 30.4779C55.2715 31.4601 55.886 32.1569 55.886 33.1803C55.886 34.2448 55.026 35.1048 53.4293 35.1048C51.0496 35.1048 48.8024 33.8758 48.8024 33.8758L47.4102 37.8894C47.4102 37.8894 49.4864 39.2817 52.9793 39.2817C58.0574 39.2817 61.7021 36.7837 61.7021 32.279C61.7008 29.8647 59.8586 28.1446 57.6461 26.8757Z" fill="#351D36"/>
<path d="M77.8765 18.4398C75.3784 18.4398 73.4127 19.6278 71.8983 21.4289L71.816 21.3877L73.986 10.0449H68.3346L62.8477 38.9142H68.4991L70.3825 29.046C71.1192 25.3191 73.0437 23.0269 74.8461 23.0269C76.115 23.0269 76.6074 23.8869 76.6074 25.1159C76.6074 25.8937 76.5251 26.8361 76.3618 27.6139L74.2329 38.9155H79.8846L82.0953 27.2449C82.3413 26.0158 82.5056 24.5426 82.5056 23.5591C82.5033 20.3644 80.8245 18.4398 77.8765 18.4398Z" fill="#351D36"/>
<path d="M95.2781 18.4404C88.4796 18.4404 83.9766 24.5831 83.9766 31.4211C83.9766 35.8024 86.6785 39.3237 91.757 39.3237C98.4317 39.3237 102.936 33.3457 102.936 26.343C102.936 22.2895 100.561 18.4404 95.2781 18.4404ZM92.4936 34.9847C90.5687 34.9847 89.7496 33.3469 89.7496 31.299C89.7496 28.0644 91.4291 22.7819 94.5002 22.7819C96.5068 22.7819 97.1609 24.502 97.1609 26.181C97.1609 29.6611 95.4836 34.9847 92.4936 34.9847Z" fill="#351D36"/>
<path d="M117.394 18.4404C113.579 18.4404 111.415 21.7984 111.415 21.7984H111.334L111.661 18.7682H106.666C106.42 20.8162 105.969 23.9274 105.519 26.262L101.588 46.9408H107.239L108.794 38.587H108.918C108.918 38.587 110.078 39.3237 112.235 39.3237C118.869 39.3237 123.209 32.5267 123.209 25.6462C123.209 21.8396 121.529 18.4404 117.394 18.4404ZM111.988 35.0657C110.521 35.0657 109.653 34.2468 109.653 34.2468L110.595 28.9644C111.251 25.4431 113.093 23.1084 115.06 23.1084C116.78 23.1084 117.311 24.7052 117.311 26.2209C117.311 29.8655 115.141 35.0657 111.988 35.0657Z" fill="#351D36"/>
<path d="M131.274 10.332C129.473 10.332 128.039 11.7655 128.039 13.6077C128.039 15.2867 129.103 16.4335 130.701 16.4335H130.782C132.544 16.4335 134.058 15.2455 134.099 13.1578C134.099 11.5199 132.994 10.332 131.274 10.332Z" fill="#351D36"/>
<path d="M123.375 38.9138H129.025L132.875 18.8906H127.183L123.375 38.9138Z" fill="#351D36"/>
<path d="M147.246 18.8506H143.315L143.519 17.9082C143.847 15.9837 144.994 14.2635 146.877 14.2635C147.883 14.2635 148.678 14.5502 148.678 14.5502L149.784 10.1278C149.784 10.1278 148.801 9.63672 146.712 9.63672C144.706 9.63672 142.701 10.21 141.185 11.5201C139.26 13.158 138.359 15.5324 137.909 17.9082L137.746 18.8506H135.124L134.305 23.1098H136.927L133.938 38.9161H139.589L142.578 23.1098H146.469L147.246 18.8506Z" fill="#351D36"/>
<path d="M160.842 18.891C160.842 18.891 157.309 27.7911 155.723 32.6494H155.64C155.533 31.0848 154.248 18.891 154.248 18.891H148.31L151.71 37.2762C151.793 37.6851 151.752 37.9319 151.587 38.2185C150.931 39.4874 149.826 40.7165 148.516 41.6177C147.451 42.3954 146.264 42.8865 145.322 43.2144L146.878 48.0058C148.025 47.7603 150.399 46.8179 152.406 44.9345C154.986 42.5189 157.36 38.7919 159.817 33.7138L166.738 18.8896H160.842V18.891Z" fill="#351D36"/>
</svg>
