<svg width="133" height="34" viewBox="0 0 133 34" fill="none" xmlns="http://www.w3.org/2000/svg">
<path fill-rule="evenodd" clip-rule="evenodd" d="M5.80804 0.0654299H27.9001C29.3708 0.0650033 30.7816 0.648951 31.8217 1.68877C32.8617 2.72858 33.4462 4.13906 33.4462 5.6098V27.7002C33.4462 30.7633 30.963 33.2463 27.9001 33.2463H5.80804C2.7457 33.2454 0.263672 30.7627 0.263672 27.7002V5.6098C0.263672 2.54772 2.74596 0.0654299 5.80804 0.0654299ZM25.6672 27.2141C26.6337 27.2141 27.4172 26.4306 27.4172 25.4642L27.4124 7.8491C27.4124 6.88264 26.6289 6.09918 25.6624 6.09918H8.04895C7.58457 6.09918 7.13922 6.28377 6.81101 6.6123C6.48279 6.94082 6.29862 7.38633 6.29904 7.85071V25.4642C6.29904 26.4306 7.0825 27.2141 8.04895 27.2141H25.6672Z" fill="#3E4348"/>
<path d="M13.3344 21.1541C12.7828 21.1498 12.3379 20.7014 12.3379 20.1497V13.1178C12.3366 12.8505 12.4419 12.5938 12.6304 12.4043C12.8189 12.2149 13.0752 12.1084 13.3425 12.1084H20.384C20.6511 12.1088 20.9071 12.2155 21.0956 12.4048C21.284 12.5942 21.3894 12.8507 21.3885 13.1178V20.148C21.3894 20.4151 21.284 20.6717 21.0956 20.8609C20.9071 21.0504 20.6511 21.157 20.384 21.1575L13.3344 21.1541Z" fill="#3E4348"/>
<path d="M50.3318 15.1767C49.3047 14.8966 48.3324 14.6326 47.5774 14.2961C46.18 13.6715 45.5296 12.8054 45.5296 11.5723C45.5296 9.24118 47.7834 8.19155 50.0276 8.19155C52.1605 8.19155 54.0232 9.07375 55.2741 10.674L55.3593 10.7834L57.1624 9.37319L57.0755 9.26371C55.4126 7.14836 52.9495 5.98926 50.137 5.98926C48.2648 5.98926 46.5486 6.49475 45.3075 7.41398C43.9101 8.43624 43.1727 9.91893 43.1727 11.6882C43.1727 15.8014 47.046 16.8042 50.1596 17.6108C53.3101 18.4416 55.2403 19.0726 55.2403 21.4744C55.2403 23.8393 53.3277 25.3672 50.3688 25.3672C48.9055 25.3672 46.1961 24.9792 44.4929 22.3777L44.414 22.2552L42.5176 23.6285L42.5916 23.7396C44.2015 26.1769 46.9801 27.5759 50.224 27.5759C54.6301 27.5759 57.5922 25.0886 57.5922 21.3892C57.5922 17.1552 53.5644 16.0589 50.3318 15.1767Z" fill="#3E4348"/>
<path fill-rule="evenodd" clip-rule="evenodd" d="M71.9628 14.3228V12.0964H74.0829V33.2436H71.9628V24.9817C70.7521 26.6415 68.9362 27.5494 66.8015 27.5494C62.7705 27.5494 59.9531 24.3217 59.9531 19.6612C59.9531 15.0006 62.7768 11.7471 66.8015 11.7471C68.9218 11.7471 70.7377 12.6599 71.9628 14.3228ZM62.1877 19.6354C62.1877 23.9498 64.6588 25.4873 66.9721 25.4873L66.9769 25.4888C70.0051 25.4888 71.9628 23.1706 71.9628 19.6354C71.9628 16.1001 70.0019 13.8141 66.9721 13.8141C63.445 13.8141 62.1877 16.8213 62.1877 19.6354Z" fill="#3E4348"/>
<path d="M88.1009 12.0957V20.4428C88.1009 23.3648 86.0998 25.4866 83.3437 25.4866C81.0545 25.4866 79.9406 24.1278 79.9406 21.3347V12.0957H77.8203V21.7677C77.8203 25.3899 79.7891 27.5519 83.0861 27.5519C85.1403 27.5519 86.9048 26.6811 88.1025 25.0888V27.2074H90.2227V12.0957H88.1009Z" fill="#3E4348"/>
<path fill-rule="evenodd" clip-rule="evenodd" d="M94.2145 13.6828C95.7776 12.4545 97.8994 11.751 100.032 11.751C103.402 11.751 105.413 13.4268 105.406 16.2376V27.2105H103.284V25.5346C102.214 26.8756 100.665 27.555 98.6722 27.555C95.425 27.555 93.4062 25.7792 93.4062 22.9234C93.4062 19.2094 96.9061 18.6266 98.397 18.3787C98.6399 18.3386 98.891 18.3 99.142 18.2612H99.1423L99.1514 18.2599C101.188 17.9463 103.291 17.6228 103.291 15.8948C103.291 13.9388 100.752 13.7875 99.9745 13.7875C98.6013 13.7875 96.6614 14.1947 95.343 15.3377L95.2223 15.4423L94.1147 13.7617L94.2145 13.6828ZM95.6199 22.8043C95.6199 25.2256 97.8994 25.4878 98.8799 25.4878H98.8814C101.013 25.4878 103.294 24.3514 103.289 21.1574V18.9711C102.255 19.6243 100.783 19.8795 99.4704 20.1071L99.4482 20.111L98.7897 20.2285C96.6872 20.6181 95.6199 21.1203 95.6199 22.8043Z" fill="#3E4348"/>
<path d="M117.688 12.3807C117.185 12.0217 116.391 11.8076 115.563 11.8076C113.863 11.83 112.272 12.6497 111.267 14.0212V12.0894H109.146V27.1995H111.267V19.118C111.267 15.5345 113.281 13.9294 115.275 13.9294C115.859 13.9216 116.437 14.0443 116.967 14.2884L117.11 14.3641L117.782 12.4419L117.688 12.3807Z" fill="#3E4348"/>
<path fill-rule="evenodd" clip-rule="evenodd" d="M118.312 19.6924C118.312 15.0174 121.228 11.751 125.396 11.751C129.411 11.751 132.217 14.6503 132.209 18.8085C132.208 19.1701 132.188 19.5311 132.149 19.8904L132.136 20.0144H120.545C120.598 23.3419 122.601 25.4878 125.674 25.4878C127.436 25.4878 128.962 24.7716 129.971 23.4691L130.063 23.3501L131.599 24.7184L131.513 24.8214C130.493 26.0658 128.632 27.5502 125.557 27.5502C121.226 27.5502 118.312 24.3932 118.312 19.6924ZM125.338 13.7858C122.748 13.7858 120.911 15.4906 120.624 18.1454H129.968C129.784 16.0106 128.48 13.7858 125.338 13.7858Z" fill="#3E4348"/>
</svg>
