<svg width="42" height="42" viewBox="0 0 42 42" fill="none" xmlns="http://www.w3.org/2000/svg">
<path d="M37.173 19.505C34.4159 19.1248 32.2293 16.9391 31.849 14.1833L31.2786 10.0257H31.0884L27.0954 9.47927C24.3383 9.09915 22.1517 6.91345 21.7714 4.15757L21.2247 0H20.1076L19.5372 4.15757C19.1569 6.91345 16.9703 9.09915 14.2132 9.47927L10.2202 10.0257H10.0538L9.48339 14.1833C9.10311 16.9391 6.91646 19.1248 4.15938 19.505L0 20.0751V21.1917L4.15938 21.7619C6.91646 22.142 9.10311 24.3277 9.48339 27.0836L10.0538 31.2412H10.1489L14.1894 31.8114C16.9465 32.1915 19.1332 34.3772 19.5134 37.1331L20.0839 41.2906H21.201L21.7714 37.1331C22.1517 34.3772 24.3383 32.1915 27.0954 31.8114L31.136 31.2412H31.2548L31.8252 27.0836C32.2055 24.3277 34.3922 22.142 37.1492 21.7619L41.3086 21.1917V20.0751L37.173 19.505ZM27.1192 11.76L29.9713 11.3561L29.5673 14.1833C29.187 16.9391 27.0003 19.1248 24.2433 19.505L21.3911 19.9088L21.7952 17.0817C22.1755 14.3021 24.3621 12.1401 27.1192 11.76ZM19.5134 17.0579L19.9175 19.8851L17.0654 19.4812C14.3083 19.1011 12.1216 16.9154 11.7413 14.1595L11.3373 11.3324L14.1894 11.7362C16.9465 12.1401 19.1332 14.3021 19.5134 17.0579ZM14.1894 29.5307L11.3373 29.9345L11.7413 27.1074C12.1216 24.3515 14.3083 22.1658 17.0654 21.7857L19.9175 21.3818L19.5134 24.209C19.1332 26.9648 16.9465 29.1505 14.1894 29.5307ZM21.7952 24.209L21.3911 21.3818L24.2433 21.7857C27.0003 22.1658 29.187 24.3515 29.5673 27.1074L29.9713 29.9345L27.1192 29.5307C24.3621 29.1505 22.1755 26.9648 21.7952 24.209Z" fill="#FFB567"/>
</svg>
