<svg width="108" height="109" viewBox="0 0 108 109" fill="none" xmlns="http://www.w3.org/2000/svg">
<path d="M89.8225 0.980469H18.1775C8.13836 0.980469 0 9.11883 0 19.158V90.8029C0 100.842 8.13836 108.98 18.1775 108.98H89.8225C99.8616 108.98 108 100.842 108 90.8029V19.158C108 9.11883 99.8616 0.980469 89.8225 0.980469Z" fill="url(#paint0_linear_489_1562)"/>
<path d="M44.9552 19.4902H24.2954C21.7559 19.4902 19.6973 21.5489 19.6973 24.0884V44.7482C19.6973 47.2877 21.7559 49.3464 24.2954 49.3464H44.9552C47.4947 49.3464 49.5534 47.2877 49.5534 44.7482V24.0884C49.5534 21.5489 47.4947 19.4902 44.9552 19.4902Z" fill="#F1D7E0"/>
<path d="M44.9552 57.4092H24.2954C21.7559 57.4092 19.6973 59.4678 19.6973 62.0073V82.6672C19.6973 85.2066 21.7559 87.2653 24.2954 87.2653H44.9552C47.4947 87.2653 49.5534 85.2066 49.5534 82.6672V62.0073C49.5534 59.4678 47.4947 57.4092 44.9552 57.4092Z" fill="#FFB567"/>
<path d="M82.7189 19.4902H62.0591C59.5196 19.4902 57.4609 21.5489 57.4609 24.0884V44.7482C57.4609 47.2877 59.5196 49.3464 62.0591 49.3464H82.7189C85.2584 49.3464 87.3171 47.2877 87.3171 44.7482V24.0884C87.3171 21.5489 85.2584 19.4902 82.7189 19.4902Z" fill="url(#paint1_linear_489_1562)"/>
<path d="M72.3831 84.8366C80.6277 84.8366 87.3112 78.1531 87.3112 69.9085C87.3112 61.664 80.6277 54.9805 72.3831 54.9805C64.1386 54.9805 57.4551 61.664 57.4551 69.9085C57.4551 78.1531 64.1386 84.8366 72.3831 84.8366Z" stroke="#351D36" stroke-width="2" stroke-linecap="round" stroke-linejoin="round"/>
<path d="M72.3831 74.2428C74.7769 74.2428 76.7174 72.3022 76.7174 69.9085C76.7174 67.5147 74.7769 65.5742 72.3831 65.5742C69.9894 65.5742 68.0488 67.5147 68.0488 69.9085C68.0488 72.3022 69.9894 74.2428 72.3831 74.2428Z" fill="#FFB567"/>
<path d="M81.2871 81.8906L93.5521 94.1605" stroke="#351D36" stroke-width="2" stroke-linecap="round" stroke-linejoin="round"/>
<defs>
<linearGradient id="paint0_linear_489_1562" x1="48.3757" y1="137.825" x2="57.484" y2="3.71688" gradientUnits="userSpaceOnUse">
<stop offset="0.36" stop-color="white"/>
<stop offset="0.49" stop-color="#E7EEF7"/>
<stop offset="0.68" stop-color="#CADAEE"/>
<stop offset="0.79" stop-color="#BFD2EB"/>
</linearGradient>
<linearGradient id="paint1_linear_489_1562" x1="62.8311" y1="-1.63383" x2="74.9739" y2="44.1765" gradientUnits="userSpaceOnUse">
<stop offset="0.31" stop-color="white"/>
<stop offset="0.43" stop-color="#BEB6BE"/>
<stop offset="0.55" stop-color="#837584"/>
<stop offset="0.65" stop-color="#59455A"/>
<stop offset="0.73" stop-color="#3F2840"/>
<stop offset="0.78" stop-color="#351D36"/>
</linearGradient>
</defs>
</svg>
