<svg width="111" height="111" viewBox="0 0 111 111" fill="none" xmlns="http://www.w3.org/2000/svg">
<path d="M92.3175 0H18.6825C8.36443 0 0 8.36443 0 18.6825V92.3175C0 102.636 8.36443 111 18.6825 111H92.3175C102.636 111 111 102.636 111 92.3175V18.6825C111 8.36443 102.636 0 92.3175 0Z" fill="url(#paint0_linear_489_1570)"/>
<path d="M84.6537 21.3242L55.5 55.5001L83.8552 91.941" stroke="#351D36" stroke-width="2" stroke-linecap="round" stroke-linejoin="round"/>
<path d="M27.2266 34.5127L55.5014 55.5003" stroke="#351D36" stroke-width="2" stroke-linecap="round" stroke-linejoin="round"/>
<path d="M27.2266 60.4619L55.5014 55.5" stroke="#351D36" stroke-width="2" stroke-linecap="round" stroke-linejoin="round"/>
<path d="M55.4997 73.3686C65.3685 73.3686 73.3686 65.3685 73.3686 55.4997C73.3686 45.631 65.3685 37.6309 55.4997 37.6309C45.631 37.6309 37.6309 45.631 37.6309 55.4997C37.6309 65.3685 45.631 73.3686 55.4997 73.3686Z" fill="#FFB567"/>
<path d="M55.4998 62.109C59.1499 62.109 62.109 59.1499 62.109 55.4998C62.109 51.8497 59.1499 48.8906 55.4998 48.8906C51.8497 48.8906 48.8906 51.8497 48.8906 55.4998C48.8906 59.1499 51.8497 62.109 55.4998 62.109Z" fill="url(#paint1_linear_489_1570)"/>
<path d="M23.5936 38.2887C27.2437 38.2887 30.2027 35.3296 30.2027 31.6795C30.2027 28.0293 27.2437 25.0703 23.5936 25.0703C19.9434 25.0703 16.9844 28.0293 16.9844 31.6795C16.9844 35.3296 19.9434 38.2887 23.5936 38.2887Z" fill="url(#paint2_linear_489_1570)"/>
<path d="M23.5936 67.0709C27.2437 67.0709 30.2027 64.1119 30.2027 60.4617C30.2027 56.8116 27.2437 53.8525 23.5936 53.8525C19.9434 53.8525 16.9844 56.8116 16.9844 60.4617C16.9844 64.1119 19.9434 67.0709 23.5936 67.0709Z" fill="url(#paint3_linear_489_1570)"/>
<path d="M84.6543 30.8163C90.4457 30.8163 95.1406 26.1215 95.1406 20.33C95.1406 14.5386 90.4457 9.84375 84.6543 9.84375C78.8628 9.84375 74.168 14.5386 74.168 20.33C74.168 26.1215 78.8628 30.8163 84.6543 30.8163Z" fill="#FFB567"/>
<path d="M84.6543 102.428C90.4457 102.428 95.1406 97.7328 95.1406 91.9414C95.1406 86.15 90.4457 81.4551 84.6543 81.4551C78.8628 81.4551 74.168 86.15 74.168 91.9414C74.168 97.7328 78.8628 102.428 84.6543 102.428Z" fill="#BFD2EB"/>
<defs>
<linearGradient id="paint0_linear_489_1570" x1="49.7195" y1="140.646" x2="59.0808" y2="2.81242" gradientUnits="userSpaceOnUse">
<stop offset="0.24" stop-color="white"/>
<stop offset="0.5" stop-color="#F5E2E8"/>
<stop offset="0.65" stop-color="#F1D7E0"/>
</linearGradient>
<linearGradient id="paint1_linear_489_1570" x1="39.3435" y1="49.0865" x2="58.6286" y2="56.7403" gradientUnits="userSpaceOnUse">
<stop offset="0.31" stop-color="white"/>
<stop offset="0.43" stop-color="#BEB6BE"/>
<stop offset="0.55" stop-color="#837584"/>
<stop offset="0.65" stop-color="#59455A"/>
<stop offset="0.73" stop-color="#3F2840"/>
<stop offset="0.78" stop-color="#351D36"/>
</linearGradient>
<linearGradient id="paint2_linear_489_1570" x1="212.748" y1="689.953" x2="720.333" y2="891.533" gradientUnits="userSpaceOnUse">
<stop offset="0.31" stop-color="white"/>
<stop offset="0.43" stop-color="#BEB6BE"/>
<stop offset="0.55" stop-color="#837584"/>
<stop offset="0.65" stop-color="#59455A"/>
<stop offset="0.73" stop-color="#3F2840"/>
<stop offset="0.78" stop-color="#351D36"/>
</linearGradient>
<linearGradient id="paint3_linear_489_1570" x1="212.748" y1="1476.28" x2="720.333" y2="1677.86" gradientUnits="userSpaceOnUse">
<stop offset="0.31" stop-color="white"/>
<stop offset="0.43" stop-color="#BEB6BE"/>
<stop offset="0.55" stop-color="#837584"/>
<stop offset="0.65" stop-color="#59455A"/>
<stop offset="0.73" stop-color="#3F2840"/>
<stop offset="0.78" stop-color="#351D36"/>
</linearGradient>
</defs>
</svg>
