<svg width="104" height="105" viewBox="0 0 104 105" fill="none" xmlns="http://www.w3.org/2000/svg">
<path d="M86.4957 0.980469H17.5043C7.83694 0.980469 0 8.81741 0 18.4848V87.4762C0 97.1435 7.83694 104.98 17.5043 104.98H86.4957C96.1631 104.98 104 97.1435 104 87.4762V18.4848C104 8.81741 96.1631 0.980469 86.4957 0.980469Z" fill="url(#paint0_linear_489_1601)"/>
<path d="M96.8712 81.0105H96.6689L92.3305 80.3941C90.8709 80.197 89.5161 79.5271 88.4734 78.4869C87.4307 77.4468 86.7575 76.0937 86.5569 74.6346L85.9404 70.1221H84.7124L84.0959 74.6346C83.8981 76.0962 83.2261 77.4526 82.1832 78.4955C81.1402 79.5385 79.7839 80.2104 78.3223 80.4082L73.9839 81.0246H73.8145V82.4598H74.0169L78.3553 83.0762C79.8169 83.274 81.1732 83.9459 82.2162 84.9889C83.2591 86.0318 83.9311 87.3882 84.1289 88.8498L84.7452 93.3623H85.9734L86.5898 88.8498C86.7877 87.3882 87.4595 86.0318 88.5025 84.9889C89.5454 83.9459 90.9018 83.274 92.3634 83.0762L96.7019 82.4598H96.8712V81.0105Z" fill="url(#paint1_linear_489_1601)"/>
<path d="M30.2071 18.0891H30.0001L25.6617 17.4727C24.1934 17.2813 22.829 16.6116 21.7795 15.5672C20.7299 14.5228 20.0536 13.1617 19.8551 11.6944L19.2387 7.18652H18.0106L17.3942 11.6944C17.1973 13.1568 16.5258 14.5142 15.4828 15.5581C14.4398 16.602 13.0829 17.2746 11.6206 17.4727L7.28216 18.0891H7.15039V19.5007H7.35269L11.6911 20.1124C13.1531 20.3112 14.5097 20.9841 15.5525 22.0278C16.5954 23.0716 17.2671 24.4285 17.4647 25.8907L18.0812 30.3985H19.3093L19.9257 25.8907C20.1233 24.4285 20.7951 23.0716 21.8379 22.0278C22.8808 20.9841 24.2373 20.3112 25.6993 20.1124L30.0377 19.5007H30.2118L30.2071 18.0891Z" fill="url(#paint2_linear_489_1601)"/>
<path d="M30.1153 81.0105H29.913L25.5746 80.3941C24.1151 80.197 22.7602 79.5271 21.7175 78.4869C20.6748 77.4468 20.0017 76.0937 19.801 74.6346L19.1846 70.1221H17.9565L17.3401 74.6346C17.1422 76.0962 16.4703 77.4526 15.4273 78.4955C14.3844 79.5385 13.0281 80.2104 11.5665 80.4082L7.22804 81.0246H7.05859V82.4598H7.26101L11.5994 83.0762C13.061 83.274 14.4173 83.9459 15.4603 84.9889C16.5032 86.0318 17.1752 87.3882 17.373 88.8498L17.9894 93.3623H19.2175L19.834 88.8498C20.0318 87.3882 20.7037 86.0318 21.7466 84.9889C22.7895 83.9459 24.146 83.274 25.6076 83.0762L29.946 82.4598H30.1153V81.0105Z" fill="url(#paint3_linear_489_1601)"/>
<path d="M96.8716 20.2395H96.6693L92.3309 19.6231C90.8693 19.4252 89.513 18.7533 88.4701 17.7104C87.4271 16.6674 86.7551 15.3111 86.5573 13.8495L85.9409 9.33691H84.7128L84.0964 13.8495C83.8986 15.3111 83.2266 16.6674 82.1836 17.7104C81.1407 18.7533 79.7844 19.4252 78.3228 19.6231L73.9702 20.2395H73.8008V21.6746H74.0032L78.3416 22.291C79.8037 22.4853 81.1617 23.1539 82.2072 24.1943C83.2527 25.2347 83.928 26.5894 84.1293 28.0505L84.7457 32.5631H85.9739L86.5903 28.0505C86.7881 26.5889 87.46 25.2326 88.5029 24.1896C89.5459 23.1467 90.9023 22.4747 92.3639 22.2769L96.7023 21.6605H96.8716V20.2395Z" fill="url(#paint4_linear_489_1601)"/>
<path d="M51.9997 76.5404C65.0116 76.5404 75.5599 65.9921 75.5599 52.9801C75.5599 39.9682 65.0116 29.4199 51.9997 29.4199C38.9877 29.4199 28.4395 39.9682 28.4395 52.9801C28.4395 65.9921 38.9877 76.5404 51.9997 76.5404Z" fill="url(#paint5_linear_489_1601)"/>
<path d="M41.0742 56.3076L48.2453 62.947L62.9264 43.0146" stroke="white" stroke-width="2" stroke-linecap="round" strokeLineJoin="round"/>
<defs>
<linearGradient id="paint0_linear_489_1601" x1="46.584" y1="132.757" x2="55.355" y2="3.61553" gradientUnits="userSpaceOnUse">
<stop offset="0.46" stop-color="white"/>
<stop offset="0.58" stop-color="#FFE0BF"/>
<stop offset="0.67" stop-color="#FFC98F"/>
<stop offset="0.75" stop-color="#FFBA72"/>
<stop offset="0.79" stop-color="#FFB567"/>
</linearGradient>
<linearGradient id="paint1_linear_489_1601" x1="84.6229" y1="63.3368" x2="85.6863" y2="90.4402" gradientUnits="userSpaceOnUse">
<stop offset="0.21" stop-color="white"/>
<stop offset="0.41" stop-color="#FFE0BF"/>
<stop offset="0.58" stop-color="#FFC98F"/>
<stop offset="0.71" stop-color="#FFBA72"/>
<stop offset="0.79" stop-color="#FFB567"/>
</linearGradient>
<linearGradient id="paint2_linear_489_1601" x1="7.12686" y1="18.8043" x2="30.1883" y2="18.8043" gradientUnits="userSpaceOnUse">
<stop offset="0.36" stop-color="white"/>
<stop offset="0.49" stop-color="#E7EEF7"/>
<stop offset="0.68" stop-color="#CADAEE"/>
<stop offset="0.79" stop-color="#BFD2EB"/>
</linearGradient>
<linearGradient id="paint3_linear_489_1601" x1="17.867" y1="63.3368" x2="18.9305" y2="90.4402" gradientUnits="userSpaceOnUse">
<stop offset="0.21" stop-color="white"/>
<stop offset="0.41" stop-color="#FFE0BF"/>
<stop offset="0.58" stop-color="#FFC98F"/>
<stop offset="0.71" stop-color="#FFBA72"/>
<stop offset="0.79" stop-color="#FFB567"/>
</linearGradient>
<linearGradient id="paint4_linear_489_1601" x1="54052" y1="19517.7" x2="55182.5" y2="19517.7" gradientUnits="userSpaceOnUse">
<stop offset="0.36" stop-color="white"/>
<stop offset="0.49" stop-color="#E7EEF7"/>
<stop offset="0.68" stop-color="#CADAEE"/>
<stop offset="0.79" stop-color="#BFD2EB"/>
</linearGradient>
<linearGradient id="paint5_linear_489_1601" x1="20.8448" y1="13.8543" x2="57.5662" y2="59.9724" gradientUnits="userSpaceOnUse">
<stop offset="0.31" stop-color="white"/>
<stop offset="0.43" stop-color="#BEB6BE"/>
<stop offset="0.55" stop-color="#837584"/>
<stop offset="0.65" stop-color="#59455A"/>
<stop offset="0.73" stop-color="#3F2840"/>
<stop offset="0.78" stop-color="#351D36"/>
</linearGradient>
</defs>
</svg>
